<?xml version="1.0" encoding="UTF-8" standalone="no"?>
<!-- Uploaded to: SVG Repo, www.svgrepo.com, Generator: SVG Repo Mixer Tools -->

<svg
   fill="#000000"
   width="679.02002"
   height="676.34003"
   viewBox="0 0 47.531401 47.343802"
   version="1.1"
   id="svg1"
   sodipodi:docname="apps.svg"
   inkscape:version="1.4.2 (f4327f4, 2025-05-13)"
   xmlns:inkscape="http://www.inkscape.org/namespaces/inkscape"
   xmlns:sodipodi="http://sodipodi.sourceforge.net/DTD/sodipodi-0.dtd"
   xmlns="http://www.w3.org/2000/svg"
   xmlns:svg="http://www.w3.org/2000/svg">
  <defs
     id="defs1" />
  <sodipodi:namedview
     id="namedview1"
     pagecolor="#ffffff"
     bordercolor="#000000"
     borderopacity="0.25"
     inkscape:showpageshadow="2"
     inkscape:pageopacity="0.0"
     inkscape:pagecheckerboard="0"
     inkscape:deskcolor="#d1d1d1"
     inkscape:zoom="2.26875"
     inkscape:cx="339.39394"
     inkscape:cy="338.29201"
     inkscape:window-width="3840"
     inkscape:window-height="2054"
     inkscape:window-x="-11"
     inkscape:window-y="-11"
     inkscape:window-maximized="1"
     inkscape:current-layer="svg1" />
  <path
     d="m 39.3984,16.2656 c 4.4533,0 8.133,-3.6796 8.133,-8.1327 C 47.5314,3.6797 43.8748,0 39.3984,0 34.9453,0 31.289,3.6797 31.289,8.1329 c 0,4.4531 3.6563,8.1327 8.1094,8.1327 z M 0,34.8516 c 0,4.0078 0.3515,7.3359 2.7422,9.7266 2.3906,2.3906 5.7656,2.7656 9.7734,2.7656 h 18.2109 c 3.9844,0 7.3594,-0.375 9.75,-2.7656 2.3908,-2.3907 2.7421,-5.7188 2.7421,-9.7266 V 18.8907 c -1.031,0.3515 -2.1561,0.539 -3.328,0.5156 -0.1641,0.0234 -0.2813,0.0234 -0.4453,0.0469 v 16.0312 c 0,2.4375 -0.3047,4.9219 -1.7109,6.3516 -1.4298,1.4062 -3.961,1.7343 -6.3751,1.7343 h -19.5 c -2.414,0 -4.9452,-0.3281 -6.3515,-1.7343 C 4.0781,40.4063 3.7734,37.9219 3.7734,35.4844 V 16.2422 c 0,-2.4609 0.3047,-4.9922 1.711,-6.3984 1.4297,-1.4297 3.9843,-1.7344 6.4453,-1.7344 h 16.1718 c 0,-0.164 0.0235,-0.3047 0.0469,-0.4453 C 28.125,6.4922 28.289,5.3672 28.6641,4.336 H 12.4453 C 8.5078,4.336 5.1328,4.711 2.7422,7.1016 0.3515,9.4922 0,12.8438 0,16.7578 Z"
     id="path1" />
</svg>
