<?xml version="1.0" encoding="UTF-8" standalone="no"?>
<svg
   version="1.1"
   id="Layer_1"
   x="0px"
   y="0px"
   viewBox="0 0 119.81999 59.41"
   xml:space="preserve"
   aria-hidden="true"
   sodipodi:docname="connectwise_logo_e_light.svg"
   inkscape:version="1.4.2 (f4327f4, 2025-05-13)"
   width="119.82"
   height="59.41"
   xmlns:inkscape="http://www.inkscape.org/namespaces/inkscape"
   xmlns:sodipodi="http://sodipodi.sourceforge.net/DTD/sodipodi-0.dtd"
   xmlns="http://www.w3.org/2000/svg"
   xmlns:svg="http://www.w3.org/2000/svg"><defs
   id="defs2" /><sodipodi:namedview
   id="namedview2"
   pagecolor="#ffffff"
   bordercolor="#000000"
   borderopacity="0.25"
   inkscape:showpageshadow="2"
   inkscape:pageopacity="0.0"
   inkscape:pagecheckerboard="0"
   inkscape:deskcolor="#d1d1d1"
   inkscape:zoom="10.645615"
   inkscape:cx="26.959458"
   inkscape:cy="23.108106"
   inkscape:window-width="3840"
   inkscape:window-height="2054"
   inkscape:window-x="-11"
   inkscape:window-y="-11"
   inkscape:window-maximized="1"
   inkscape:current-layer="g2" />
<style
   type="text/css"
   id="style1">
	.st0{fill:#24336A;}
</style>
<g
   id="g2">
	<path
   id="path1"
   class="st0"
   d="M 3.5292969,0.05078125 C 1.9293001,-0.25921813 0.37054626,0.7906282 0.06054687,2.390625 -0.25945249,4.0006218 0.7906282,5.55086 2.390625,5.8808594 c 8.749982,1.7099966 16.690014,5.3882916 23.75,10.9882816 1.169998,0.939998 2.328988,1.920939 3.458984,2.960937 l 0.03125,0.0293 c 0.35,0.32 0.699063,0.650469 1.039063,0.980469 2.999994,2.899994 5.830709,6.189381 8.470703,9.859375 7.399986,10.299978 10.448516,19.91 10.478516,20 0.339998,1.089998 1.270392,1.880781 2.40039,2.050781 0.14,0.02 0.289688,0.0293 0.429688,0.0293 0.979998,0 1.910939,-0.478596 2.460937,-1.308594 l 4.910156,-7.310547 4.910157,7.310547 c 0.559998,0.829998 1.478986,1.308594 2.458984,1.308594 0.14,0 0.289688,-0.0093 0.429688,-0.0293 1.129996,-0.17 2.060392,-0.960783 2.40039,-2.050781 0.03,-0.1 3.080483,-9.699786 10.480469,-20.009766 2.619994,-3.649992 5.430162,-6.908834 8.410156,-9.798828 1.489998,-1.439998 3.019612,-2.781252 4.59961,-4.03125 7.059984,-5.589988 15.000004,-9.2802378 23.750004,-10.9902344 1.59998,-0.3199994 2.64984,-1.8685188 2.33984,-3.4785156 -0.31,-1.60999678 -1.85875,-2.64984313 -3.46875,-2.33984375 C 105.98088,2.0407743 96.629203,6.5801702 88.449219,13.410156 79.809235,8.180167 69.950058,5.3808594 59.830078,5.3808594 c -10.11998,0 -19.979158,2.8093076 -28.61914,8.0292966 C 23.030954,6.5801702 13.669277,2.0407773 3.5292969,0.05078125 Z M 59.820312,11.369141 c 8.429984,0 16.670016,2.181492 24,6.271484 -2.929994,2.939994 -5.690238,6.189772 -8.240234,9.759766 -4.40999,6.159986 -7.339613,11.998836 -9.099609,16.048828 L 59.820312,32.580078 53.160156,43.449219 c -1.759996,-4.049992 -4.699619,-9.888842 -9.099609,-16.048828 -2.549996,-3.569994 -5.300239,-6.829772 -8.240235,-9.759766 7.339986,-4.089992 15.570018,-6.271484 24,-6.271484 z M 23.490234,19 c -0.369998,0.33 -0.739375,0.650236 -1.109375,0.990234 -10.229978,9.289982 -16.9709411,22.080028 -18.9609371,36 -0.2299996,1.629998 0.9010188,3.148907 2.5410156,3.378907 1.6399968,0.229998 3.1489067,-0.899067 3.3789063,-2.539063 C 11.12984,44.280104 17.190409,32.77014 26.400391,24.410156 26.950389,23.910158 27.519844,23.419453 28.089844,22.939453 26.599846,21.529457 25.070232,20.209998 23.490234,19 Z m 72.660157,0 c -1.579998,1.209998 -3.109612,2.529457 -4.59961,3.939453 0.57,0.48 1.129455,0.970705 1.689453,1.470703 9.209986,8.359984 15.270546,19.869948 17.060546,32.419922 0.22,1.489998 1.49899,2.570313 2.95899,2.570313 0.14,0 0.28968,-0.01125 0.42968,-0.03125 1.64,-0.23 2.77102,-1.748909 2.54102,-3.378907 -1.99,-13.919972 -8.72096,-26.710018 -18.960939,-36 C 96.899533,19.650236 96.530389,19.32 96.150391,19 Z M 369.0293,24.318359 c -0.008,-0.0065 -199.95631,-4.487159 -0.0781,0.02148 z"
   inkscape:label="path1"
   style="display:inline"
   sodipodi:nodetypes="ccccccccccscccsccccccsccsccscccccscscccsccccccccsccccccc" />
	
	
<path
   style="fill:#ffffff;stroke-width:0.0939354"
   d="M 5.1664466,59.058785 C 4.2267792,58.603868 3.5774138,57.710263 3.4621005,56.7134 3.3634731,55.860783 4.2125499,51.462413 5.0718284,48.37472 7.7449381,38.769286 12.537313,30.276255 19.382061,23.014171 c 0.953701,-1.01185 3.590878,-3.541068 3.937981,-3.776771 0.20386,-0.138432 0.253969,-0.109893 1.315095,0.749005 1.247042,1.009381 3.236579,2.791779 3.274781,2.933831 0.01389,0.05166 -0.232933,0.30529 -0.548505,0.563612 -0.903793,0.73983 -3.756608,3.551564 -4.860699,4.790705 -6.764271,7.591657 -11.249004,16.960464 -12.9726082,27.100361 -0.3419044,2.011409 -0.4673901,2.40769 -0.9281855,2.93118 -0.5694684,0.646951 -1.2155611,0.949326 -2.1172146,0.990872 -0.6777754,0.03123 -0.8087135,0.0075 -1.3162591,-0.238181 z"
   id="path2" /><path
   style="fill:#ffffff;stroke-width:0.0939354"
   d="M 51.664466,52.619815 C 51.136555,52.445457 50.904077,52.308943 50.47516,51.921443 50.00997,51.501172 49.862511,51.213409 49.277161,49.583584 47.09007,43.493936 43.319912,36.435614 39.167462,30.65665 29.601202,17.343292 17.411607,8.9786787 3.2471406,6.0077886 1.8962492,5.7244493 1.3502339,5.478009 0.85235782,4.9269196 0.3028218,4.3186489 0.09816039,3.7862292 0.09587861,2.9589649 0.09427134,2.3762492 0.13907899,2.1625223 0.35505531,1.722724 0.81868668,0.77861907 1.7139144,0.1654975 2.7604405,0.07532897 3.3467765,0.02481037 5.2313731,0.41015534 7.7152905,1.0884511 15.779456,3.2905729 23.354916,7.1834719 30.124668,12.604245 l 1.098632,0.879713 0.592205,-0.361445 c 1.110607,-0.677844 3.231438,-1.792179 4.778156,-2.510557 6.031447,-2.8013211 12.341158,-4.4634285 19.110027,-5.0339727 0.774967,-0.065321 2.634887,-0.1187664 4.133157,-0.1187664 1.498269,0 3.35819,0.053445 4.133157,0.1187664 8.4535,0.7125409 16.343544,3.1688152 23.468768,7.3061357 l 1.018209,0.591232 0.907466,-0.731398 C 97.168639,6.4539463 105.97287,2.235501 115.48343,0.22935556 c 1.16117,-0.24493578 1.78063,-0.20939975 2.502,0.14352908 1.01513,0.49665935 1.58597,1.42885326 1.58362,2.58608026 -0.002,0.7998659 -0.19798,1.3130492 -0.74852,1.956221 -0.4477,0.523041 -1.10149,0.8133364 -2.48155,1.1018574 C 99.536412,9.5298601 85.342663,20.855992 75.379432,38.701382 c -1.781407,3.190723 -3.917238,7.823924 -5.023111,10.896505 -0.597069,1.65891 -0.889,2.16429 -1.480868,2.563625 -0.618099,0.417033 -1.001078,0.536448 -1.711648,0.533701 -0.752839,-0.0029 -1.304623,-0.210521 -1.863362,-0.701101 -0.192968,-0.169428 -1.475412,-1.982611 -2.849876,-4.029296 -1.374464,-2.046685 -2.53081,-3.756814 -2.569659,-3.800286 -0.03885,-0.04347 -1.236426,1.653125 -2.661285,3.770218 -1.424858,2.117091 -2.729278,3.966427 -2.898711,4.109635 -0.682124,0.576539 -1.872423,0.834379 -2.656446,0.575432 z m 4.842289,-14.529013 c 1.718749,-2.815714 3.173904,-5.173569 3.233679,-5.239679 0.08479,-0.09377 0.830046,1.057557 3.389928,5.237017 1.804686,2.946469 3.314394,5.346168 3.354907,5.332664 0.04051,-0.0135 0.292673,-0.510241 0.560357,-1.10386 3.854849,-8.548553 9.637358,-17.215793 15.547068,-23.303061 0.684554,-0.705122 1.243956,-1.319373 1.243116,-1.365002 -0.002,-0.106954 -1.859188,-1.082053 -3.432332,-1.802085 -5.561671,-2.54559 -11.603476,-4.058213 -17.701604,-4.431764 -8.879485,-0.543929 -18.158617,1.488392 -26.003112,5.695215 l -0.969332,0.51983 0.970565,1.001211 c 6.279898,6.478182 11.836744,14.777271 15.981076,23.86756 0.380051,0.833615 0.465435,0.95946 0.573602,0.845418 0.0699,-0.07369 1.533332,-2.437751 3.252082,-5.253464 z"
   id="path3" /><path
   style="fill:#ffffff;stroke-width:0.0939354"
   d="m 112.34673,59.195416 c -0.77264,-0.302938 -1.37998,-0.843369 -1.72661,-1.536398 -0.11034,-0.22061 -0.28096,-0.921215 -0.38891,-1.596901 -1.58865,-9.944361 -5.66747,-18.934308 -12.079657,-26.624226 -1.321044,-1.584282 -4.27668,-4.596727 -5.656722,-5.765445 l -0.876949,-0.742663 0.45424,-0.405135 c 1.203825,-1.07369 2.956272,-2.573878 3.482072,-2.980842 l 0.585513,-0.45318 0.447777,0.360505 c 0.816114,0.657053 4.765696,4.670719 5.770826,5.864457 7.38655,8.772616 12.01263,18.926217 13.74603,30.170604 0.14217,0.92229 0.14257,1.05106 0.005,1.588238 -0.2567,1.001993 -1.09014,1.89382 -2.00811,2.148781 -0.4543,0.126181 -1.39996,0.111199 -1.75446,-0.02779 z"
   id="path4" /></g>
</svg>
