<?xml version="1.0" encoding="UTF-8" standalone="no"?>
<svg
   width="163"
   height="163"
   fill="none"
   version="1.1"
   id="svg5"
   sodipodi:docname="immybot.svg"
   inkscape:version="1.3.2 (091e20e, 2023-11-25, custom)"
   xmlns:inkscape="http://www.inkscape.org/namespaces/inkscape"
   xmlns:sodipodi="http://sodipodi.sourceforge.net/DTD/sodipodi-0.dtd"
   xmlns="http://www.w3.org/2000/svg"
   xmlns:svg="http://www.w3.org/2000/svg">
  <defs
     id="defs5" />
  <sodipodi:namedview
     id="namedview5"
     pagecolor="#ffffff"
     bordercolor="#000000"
     borderopacity="0.25"
     inkscape:showpageshadow="2"
     inkscape:pageopacity="0.0"
     inkscape:pagecheckerboard="0"
     inkscape:deskcolor="#d1d1d1"
     inkscape:zoom="3.7632831"
     inkscape:cx="13.950585"
     inkscape:cy="53.809399"
     inkscape:window-width="2560"
     inkscape:window-height="1369"
     inkscape:window-x="-8"
     inkscape:window-y="-8"
     inkscape:window-maximized="1"
     inkscape:current-layer="svg5" />
  <path
     fill="#fff"
     d="m 135.21389,40.879596 h -4.16236 V 30.3456 c 0.008,-5.819312 -4.71469,-10.541997 -10.526,-10.541997 h -6.76385 c -5.81931,0 -10.542,4.722685 -10.542,10.541997 V 40.879596 H 25.879658 A 18.970798,18.970798 0 0 0 6.9088611,59.850394 v 63.235996 a 18.970798,18.970798 0 0 0 18.9707969,18.9708 H 135.21389 a 18.970798,18.970798 0 0 0 18.9708,-18.9708 V 59.850394 A 18.970798,18.970798 0 0 0 135.21389,40.879596 Z M 96.151659,114.65759 H 30.098061 V 97.791991 H 96.13565 V 114.65759 Z M 129.17846,83.039594 H 30.098061 v -16.8656 h 99.064389 v 16.8656 z"
     id="path1"
     style="fill:#6b64c9;fill-opacity:1;stroke-width:8.00456" />
</svg>
