<?xml version="1.0" encoding="UTF-8" standalone="no"?>
<svg
   id="Layer_1"
   version="1.1"
   viewBox="0 0 600 123.9"
   sodipodi:docname="ninjaone.svg"
   width="600"
   height="123.9"
   inkscape:version="1.4.2 (f4327f4, 2025-05-13)"
   xmlns:inkscape="http://www.inkscape.org/namespaces/inkscape"
   xmlns:sodipodi="http://sodipodi.sourceforge.net/DTD/sodipodi-0.dtd"
   xmlns="http://www.w3.org/2000/svg"
   xmlns:svg="http://www.w3.org/2000/svg">
  <sodipodi:namedview
     id="namedview11"
     pagecolor="#ffffff"
     bordercolor="#000000"
     borderopacity="0.25"
     inkscape:showpageshadow="2"
     inkscape:pageopacity="0.0"
     inkscape:pagecheckerboard="0"
     inkscape:deskcolor="#d1d1d1"
     inkscape:zoom="4.3921569"
     inkscape:cx="300.08036"
     inkscape:cy="63.636161"
     inkscape:window-width="3840"
     inkscape:window-height="2054"
     inkscape:window-x="-11"
     inkscape:window-y="-11"
     inkscape:window-maximized="1"
     inkscape:current-layer="Layer_1" />
  <!-- Generator: Adobe Illustrator 29.0.0, SVG Export Plug-In . SVG Version: 2.1.0 Build 186)  -->
  <defs
     id="defs1">
    <style
       id="style1">
      .st0 {
        fill: #04ff88;
      }
    </style>
  </defs>
  <g
     id="g10"
     transform="translate(-108,-104.4)">
    <polygon
       class="st0"
       points="211.2,201.1 211.2,127.8 191.5,136.7 191.5,201.1 "
       id="polygon1" />
    <polygon
       class="st0"
       points="191.5,129.8 191.5,113.2 211.2,104.4 211.2,120.9 "
       id="polygon2" />
    <polygon
       class="st0"
       points="329.3,120.9 329.3,104.4 309.6,113.2 309.6,129.8 "
       id="polygon3" />
    <g
       id="g9">
      <path
         class="st0"
         d="m 286.9,137.6 c 5.2,5.2 7.8,13 7.8,23.3 v 40.3 H 275 v -37.1 c 0,-5.6 -1.2,-9.7 -3.5,-12.5 -2.4,-2.7 -5.8,-4.1 -10.2,-4.1 -4.4,0 -8.9,1.6 -11.9,4.8 -2.9,3.2 -4.4,7.9 -4.4,14.2 v 34.8 h -19.7 v -64.9 l 18.8,-8.4 v 11.2 c 2.6,-3 5.8,-5.3 9.7,-6.9 3.9,-1.6 8.1,-2.4 12.7,-2.4 8.4,0 15.2,2.6 20.4,7.8"
         id="path3" />
      <path
         class="st0"
         d="m 329.3,127.8 v 74 c 0,8.2 -2.3,14.7 -6.7,19.4 -4.5,4.8 -10.8,7.1 -18.9,7.1 -8.1,0 -12.1,-1.3 -15.8,-3.9 l 5.3,-14.8 c 2.3,1.7 5,2.5 8.3,2.5 3.3,0 4.5,-0.8 5.9,-2.5 1.4,-1.7 2.1,-4.2 2.1,-7.7 v -65.2 l 19.7,-9 z"
         id="path4" />
      <path
         class="st0"
         d="m 390,180.1 c 3.3,-3.5 4.9,-8.3 4.9,-14.2 0,-5.9 -1.6,-10.7 -4.9,-14.2 -3.3,-3.5 -7.4,-5.3 -12.4,-5.3 -5,0 -9.2,1.8 -12.5,5.3 -3.3,3.5 -4.9,8.3 -4.9,14.2 0,5.9 1.6,10.7 4.9,14.2 3.3,3.5 7.4,5.3 12.5,5.3 5.1,0 9.1,-1.8 12.4,-5.3 m 24.2,-43.5 v 64.5 H 395.4 V 193 c -4.9,6.1 -11.9,9.2 -21.2,9.2 -9.3,0 -12.2,-1.5 -17.3,-4.4 -5.2,-3 -9.2,-7.2 -12.2,-12.7 -2.9,-5.5 -4.4,-11.9 -4.4,-19.1 0,-7.2 1.5,-13.6 4.4,-19.1 2.9,-5.5 7,-9.7 12.2,-12.7 5.2,-3 10.9,-4.5 17.3,-4.5 6.4,0 15.4,2.8 20.3,8.5 v -10.4 l 19.7,8.9 v 0 z"
         id="path5" />
      <path
         class="st0"
         d="m 679.6,190.9 c -6.4,7.6 -15.7,11.3 -27.9,11.3 -12.2,0 -14.4,-1.6 -20.3,-4.7 -5.9,-3.1 -10.4,-7.4 -13.6,-12.9 -3.2,-5.5 -4.8,-11.7 -4.8,-18.7 0,-7 1.6,-13.1 4.7,-18.6 3.2,-5.5 7.5,-9.9 13,-12.9 5.5,-3.1 11.7,-4.7 18.5,-4.7 6.8,0 12.7,1.5 18,4.4 5.4,3 9.6,7.2 12.7,12.7 3.1,5.6 4.6,12 4.6,19.3 0,7.3 -0.1,2.1 -0.4,5.5 h -51.3 c 0.9,4.4 3.1,7.8 6.6,10.4 3.4,2.5 7.7,3.8 12.9,3.8 5.2,0 6.7,-0.5 9.4,-1.6 0.7,-0.3 1.3,-0.6 1.9,-0.9 l 16.1,7.6 v 0 z M 638,149.1 c -3,2.6 -4.9,6.2 -5.5,10.7 h 33.4 c -0.7,-4.4 -2.5,-8 -5.6,-10.7 -3,-2.7 -6.7,-4 -11.1,-4 -4.4,0 -8.2,1.3 -11.2,3.9"
         id="path6" />
      <path
         class="st0"
         d="m 487.7,180.9 c 4.2,-2.5 7.5,-5.9 9.9,-10.4 2.4,-4.4 3.6,-9.5 3.6,-15.2 0,-5.7 -1.2,-10.7 -3.6,-15.2 -2.4,-4.4 -5.7,-7.9 -9.9,-10.4 -4.2,-2.5 -8.9,-3.7 -14.1,-3.7 -5.2,0 -9.9,1.2 -14.1,3.7 -4.2,2.5 -7.5,6 -9.9,10.4 -2.4,4.4 -3.6,9.5 -3.6,15.2 0,5.7 1.2,10.7 3.6,15.2 2.4,4.4 5.7,7.9 9.9,10.4 4.2,2.5 8.9,3.7 14.1,3.7 5.2,0 9.9,-1.2 14.1,-3.7 m -38.9,15.6 c -7.4,-4.1 -13.1,-9.7 -17.3,-16.9 -4.2,-7.2 -6.2,-15.3 -6.2,-24.3 0,-9 2.1,-17.1 6.2,-24.3 4.2,-7.2 9.9,-12.8 17.3,-16.9 7.4,-4.1 15.6,-6.1 24.8,-6.1 9.2,0 17.4,2 24.7,6.1 7.3,4.1 13.1,9.7 17.3,16.9 4.2,7.2 6.3,15.3 6.3,24.3 0,9 -2.1,17.1 -6.3,24.3 -4.2,7.2 -10,12.8 -17.3,16.9 -7.3,4.1 -15.6,6.2 -24.7,6.2 -9.1,0 -17.4,-2 -24.8,-6.2"
         id="path7" />
      <path
         class="st0"
         d="m 594.4,137.6 c 5.2,5.2 7.8,13 7.8,23.3 v 40.3 h -19.7 v -37.1 c 0,-5.6 -1.2,-9.7 -3.5,-12.5 -2.4,-2.7 -5.8,-4.1 -10.2,-4.1 -4.4,0 -8.9,1.6 -11.9,4.8 -2.9,3.2 -4.4,7.9 -4.4,14.2 v 34.8 h -19.7 v -64.9 l 18.8,-8.4 v 11.2 c 2.6,-3 5.8,-5.3 9.7,-6.9 3.9,-1.6 8.1,-2.4 12.7,-2.4 8.4,0 15.2,2.6 20.4,7.8"
         id="path8" />
      <path
         class="st0"
         d="m 169.6,137.6 c 5.2,5.2 7.8,13 7.8,23.3 v 40.3 h -19.7 v -37.1 c 0,-5.6 -1.2,-9.7 -3.5,-12.5 -2.4,-2.7 -5.8,-4.1 -10.2,-4.1 -4.4,0 -8.9,1.6 -11.9,4.8 -2.9,3.2 -4.4,7.9 -4.4,14.2 v 34.8 H 108 v -64.9 l 18.8,-8.4 v 11.2 c 2.6,-3 5.8,-5.3 9.7,-6.9 3.9,-1.6 8.1,-2.4 12.7,-2.4 8.4,0 15.2,2.6 20.4,7.8"
         id="path9" />
    </g>
  </g>
  <g
     id="g11"
     transform="translate(-108,-104.4)">
    <path
       class="st0"
       d="m 700.1,192 c 0.3,-0.1 0.7,-0.3 1,-0.5 0.8,-0.7 1.2,-1.6 1.2,-2.8 0,-1.2 -0.4,-2.1 -1.2,-2.7 -0.8,-0.7 -1.9,-1 -3.3,-1 h -4.5 v 10.8 h 2.4 v -3.3 h 2.2 l 2.1,3.3 h 2.5 z m -0.7,-1.9 c -0.4,0.3 -1,0.5 -1.8,0.5 h -2 v -3.8 h 2 c 0.8,0 1.4,0.2 1.8,0.5 0.4,0.3 0.6,0.8 0.6,1.4 0,0.6 -0.2,1.1 -0.6,1.4 z"
       id="path10" />
    <path
       class="st0"
       d="m 705.7,190.5 c 0,4.6 -3.8,8.4 -8.4,8.4 -4.6,0 -8.4,-3.8 -8.4,-8.4 0,-4.6 3.8,-8.4 8.4,-8.4 4.6,0 8.4,3.8 8.4,8.4 z m -8.4,-10.7 c -5.9,0 -10.7,4.8 -10.7,10.7 0,5.9 4.8,10.7 10.7,10.7 5.9,0 10.7,-4.8 10.7,-10.7 0,-5.9 -4.8,-10.7 -10.7,-10.7 z"
       id="path11" />
  </g>
</svg>
