<?xml version="1.0" encoding="UTF-8" standalone="no"?>
<svg
   width="50"
   height="50"
   viewBox="0 0 49.999999 50"
   fill="none"
   version="1.1"
   id="svg26"
   sodipodi:docname="rewst.svg"
   inkscape:version="1.4.2 (f4327f4, 2025-05-13)"
   xmlns:inkscape="http://www.inkscape.org/namespaces/inkscape"
   xmlns:sodipodi="http://sodipodi.sourceforge.net/DTD/sodipodi-0.dtd"
   xmlns="http://www.w3.org/2000/svg"
   xmlns:svg="http://www.w3.org/2000/svg">
  <defs
     id="defs26" />
  <sodipodi:namedview
     id="namedview26"
     pagecolor="#ffffff"
     bordercolor="#000000"
     borderopacity="0.25"
     inkscape:showpageshadow="2"
     inkscape:pageopacity="0.0"
     inkscape:pagecheckerboard="0"
     inkscape:deskcolor="#d1d1d1"
     inkscape:zoom="4.7552931"
     inkscape:cx="55.201645"
     inkscape:cy="22.185804"
     inkscape:window-width="1920"
     inkscape:window-height="1009"
     inkscape:window-x="-8"
     inkscape:window-y="-8"
     inkscape:window-maximized="1"
     inkscape:current-layer="svg26" />
  <path
     d="m 34.240379,12.343733 c -0.9553,1.52348 -2.7634,2.97925 -3.6163,4.33349 -1.0235,1.6589 -1.5352,4.7397 -1.774,6.534 -1.9447,-1.0156 -4.8786,-1.5912 -8.76785,-0.5078 -1.39875,0.4062 -2.59281,1.0495 -3.58218,1.8282 0.2047,-0.711 0.37528,-1.9636 -0.10235,-3.2163 -0.75055,-1.9974 0,-5.28138 1.33053,-4.8413 1.36464,0.4063 2.04696,3.4194 2.04696,3.4194 0,0 0.10234,0.5078 -0.03412,-1.625 -0.13646,-2.1329 1.67168,-6.87264 3.58218,-7.00806 1.80813,-0.13542 1.22813,2.9454 1.15993,3.35166 0.0341,-0.13542 0.1706,-0.64325 0.7164,-2.70841 0.7506,-2.7761198 6.1068,-5.9923588 8.7678,-3.1823798 1.2282,1.21878 1.0235,2.4375698 0.273,3.6224998 z"
     fill="#f75b58"
     id="path7" />
  <path
     d="m 16.500589,26.055423 c -0.27293,0 -0.54586,-0.0677 -0.81879,-0.237 -0.54585,-0.3386 -0.81878,-1.0157 -0.6482,-1.6251 0.13646,-0.4739 0.27293,-1.388 -0.06823,-2.3021 -0.682323,-1.7943 -0.511745,-4.7736 0.81878,-6.1278 0.6482,-0.6771 1.53522,-0.91408 2.38812,-0.64324 0.17058,0.06771 0.34116,0.13542 0.51174,0.20313 0.78466,-2.57299 2.38811,-5.3829698 4.57154,-5.5522498 0.44353,-0.03385 0.85293,0.03386 1.22813,0.20313 1.0918,-1.6589 3.0705,-3.080813 5.1857,-3.622496 2.1493,-0.541682 4.0939,-0.06771 5.4244,1.354206 1.0576,1.08336 1.9787,2.9453998 0.4094,5.4506798 0,0 0,0 0,0.03385 0,0.03386 -0.0341,0.03386 -0.0341,0.06771 -0.5459,0.88024 -1.2964,1.65891 -2.0129,2.43757 -0.614,0.67711 -1.194,1.28651 -1.5352,1.82821 -0.6482,1.0495 -1.2282,3.2162 -1.5693,5.9246 -0.0682,0.474 -0.3753,0.9141 -0.7847,1.1511 -0.4435,0.237 -0.9552,0.237 -1.3987,0 -1.4329,-0.8125 -3.9234,-1.4896 -7.67613,-0.4401 -1.12582,0.3047 -2.1493,0.8464 -3.03632,1.5573 -0.27293,0.237 -0.61408,0.3386 -0.95524,0.3386 z m 1.22817,-7.5159 c -0.13646,0.6771 -0.17058,1.5912 0.10235,2.3022 0.13646,0.3385 0.20469,0.6771 0.27293,1.0156 0.40939,-0.1692 0.81878,-0.3385 1.26229,-0.4739 -0.47763,-0.1355 -0.88702,-0.5417 -1.02348,-1.1511 -0.13647,-0.5756 -0.37528,-1.2188 -0.61409,-1.6928 z m 6.41382,2.099 c 1.3646,0 2.5246,0.2032 3.5139,0.5079 0.3412,-1.8621 0.8529,-3.8934 1.7058,-5.21372 0.4776,-0.77867 1.1941,-1.55734 1.9105,-2.30215 0.6482,-0.6771 1.2964,-1.38806 1.7058,-2.03131 0,-0.03385 0.0341,-0.03385 0.0341,-0.06771 0.5459,-0.88023 0.4094,-1.28649 -0.0682,-1.7604698 -0.58,-0.60939 -1.4329,-0.77867 -2.4905,-0.50782 -1.8081,0.44011 -3.4457,1.9635998 -3.7186,3.0130998 -0.5459,2.09902 -0.6823,2.60685 -0.7164,2.74227 -0.2047,0.77867 -0.9894,1.25261 -1.8082,1.04951 -0.78465,-0.16928 -1.29639,-0.94794 -1.12581,-1.72661 0.10234,-0.50783 0.13646,-0.9818 0.10235,-1.32035 -0.81879,0.84638 -2.01285,3.55476 -1.9105,5.17986 0.03412,0.6432 0.06823,1.151 0.06823,1.4219 0.03412,0.6771 -0.17058,1.0834 -0.40939,1.3542 1.15995,-0.237 2.25165,-0.3386 3.20692,-0.3386 z"
     fill="#000000"
     id="path8" />
  <path
     d="m 16.841499,21.991923 c -0.6482,-1.9636 -0.06823,-3.3178 0.03412,-3.4871 -0.03412,0.1016 -0.06824,0.5078 0.20469,1.0495 0.78467,1.5912 3.4116,1.7605 3.4116,1.7605 0,0 -0.23881,-0.6433 -0.23881,-2.4376 0,-3.45321 1.7058,-5.48452 1.7058,-5.48452 0,0 -0.2047,1.15107 0.10234,1.92974 0.51174,1.38808 2.59284,1.65888 2.59284,1.65888 0,0 -0.1706,-3.41935 2.3199,-4.63813 1.9446,-0.94795 3.0022,0.54168 4.5715,0.88023 1.774,0.40626 2.5928,-0.71096 2.6952,-0.88023 -0.9553,1.52348 -2.7634,2.97925 -3.5822,4.33343 -1.0235,1.6589 -1.5352,4.7397 -1.774,6.5341 0,0 -0.1024,0.3385 -0.9553,0.9479 -1.1258,0.7787 -2.5246,1.3881 -3.5139,1.5235 -0.88705,0.1016 -0.7165,-1.4558 -2.79754,-2.2006 -1.46699,-0.5417 -2.45636,-0.474 -3.44572,0.0339 -0.47762,0.237 -0.92113,0.5416 -1.33052,0.8463 0.10235,-0.7786 0.2047,-1.7604 0,-2.3698 z"
     fill="#b80015"
     id="path9" />
  <path
     d="m 24.244679,27.206023 c -1.12578,0 -1.70575,-0.8464 -1.97868,-1.2865 -0.27293,-0.4063 -0.51174,-0.7787 -1.22817,-1.0495 -1.09171,-0.4063 -1.67169,-0.3386 -2.25166,-0.0339 -0.37527,0.2031 -0.75055,0.4401 -1.09171,0.6771 -0.51174,0.3724 -1.15994,0.4063 -1.7058,0.0677 -0.54585,-0.3385 -0.78466,-0.9479 -0.68231,-1.5573 0.23881,-1.2188 0.13646,-1.6251 0.13646,-1.6251 -0.818786,-2.4714 -0.06823,-4.2657 0.10235,-4.6043 0.30704,-0.6771 1.09171,-1.0156 1.84226,-0.7786 0.71643,0.237 1.12583,0.9141 1.02348,1.6589 0,0.0338 0,0.0677 0.06823,0.1692 0.06823,0.1355 0.17058,0.237 0.30704,0.3386 0,-0.1016 0,-0.237 0,-0.3724 0,-3.96106 1.97873,-6.36478 2.08108,-6.46634 0.4435,-0.50783 1.15994,-0.67711 1.77403,-0.40626 0.61409,0.27084 0.95525,0.94794 0.8529,1.62504 -0.06823,0.3047 -0.06823,0.81253 0,1.04951 0.3412,-1.32035 1.1599,-2.87769 2.8657,-3.69021 1.9788,-0.9817998 3.514,-0.20313 4.5033,0.33855 0.3753,0.20313 0.7165,0.37241 1.0576,0.44012 0.7165,0.16927 1.0235,-0.13542 1.1259,-0.27084 0.4435,-0.6771 1.3646,-0.84638 2.0469,-0.40626 0.6823,0.44011 0.887,1.3542 0.4435,2.0313 -0.5458,0.88024 -1.3305,1.69276 -2.0469,2.50528 -0.6141,0.67711 -1.1941,1.28651 -1.5352,1.82821 -0.6482,1.0495 -1.2282,3.2162 -1.5694,5.9246 0,0.1016 -0.0341,0.2032 -0.0682,0.2709 -0.1706,0.5416 -0.6823,1.1172 -1.5352,1.7266 -1.3306,0.9479 -2.9681,1.625 -4.1963,1.7943 -0.1365,0.1016 -0.2388,0.1016 -0.3412,0.1016 z m -2.42219,-5.1799 c 0.06824,0.0339 0.17058,0.0677 0.23882,0.1016 1.5011,0.5417 2.18337,1.4558 2.59277,2.0313 0.7165,-0.2031 1.6035,-0.6432 2.354,-1.1511 0.2047,-0.1354 0.3071,-0.237 0.4094,-0.3047 0.3071,-2.2006 0.887,-5.0444 1.9446,-6.73714 0.3071,-0.50783 0.7165,-0.9818 1.1259,-1.45577 -0.3753,-0.13543 -0.7165,-0.33856 -1.0576,-0.50783 -0.887,-0.47397 -1.1941,-0.57554 -1.8082,-0.3047 -1.5693,0.74481 -1.5011,3.18234 -1.5011,3.21624 0,0.4401 -0.1706,0.8802 -0.4776,1.1511 -0.3412,0.3047 -0.7847,0.4401 -1.1941,0.3724 -0.2047,-0.0339 -1.53518,-0.237 -2.59277,-1.0495 -0.06823,0.4401 -0.13646,0.9479 -0.13646,1.4557 0,1.2527 0.10234,1.8282 0.13646,1.9298 0.2047,0.4401 0.17058,0.8802 -0.03412,1.2526 z m -3.47983,-3.2839 v 0.0338 z"
     fill="#000000"
     id="path10" />
  <path
     d="m 34.241079,12.343733 c -0.9552,1.52348 -2.7634,2.97925 -3.6163,4.33349 -1.0235,1.6589 -1.5352,4.7397 -1.774,6.534 -1.9446,-1.0156 -4.8786,-1.5912 -8.76782,-0.5078 -1.39875,0.4062 -2.59281,1.0495 -3.58217,1.8282 0.20469,-0.711 0.37527,-1.9636 -0.10235,-3.2163 -0.75055,-1.9974 0,-5.28138 1.33052,-4.8413 1.36464,0.4063 2.04696,3.4194 2.04696,3.4194 0,0 0.10235,0.5078 -0.03412,-1.625 -0.13646,-2.1329 1.67169,-6.87264 3.58218,-7.00806 1.8081,-0.13542 1.2282,2.9454 1.1599,3.35166 0.0342,-0.13542 0.1706,-0.64325 0.7165,-2.70841 0.7505,-2.7761198 6.1067,-5.9923588 8.7678,-3.1823798 1.2282,1.21878 1.0235,2.4375698 0.2729,3.6224998 z"
     fill="#f75b58"
     id="path11" />
  <path
     d="m 16.841989,21.991923 c -0.6482,-1.9636 -0.06823,-3.3178 0.03411,-3.4871 -0.03411,0.1016 -0.06823,0.5078 0.2047,1.0495 0.78467,1.5912 3.4116,1.7605 3.4116,1.7605 0,0 -0.23881,-0.6433 -0.23881,-2.4376 0,-3.45321 1.70579,-5.48452 1.70579,-5.48452 0,0 -0.20469,1.15107 0.10235,1.92974 0.51174,1.38808 2.59285,1.65888 2.59285,1.65888 0,0 -0.1706,-3.41935 2.3198,-4.63813 1.9447,-0.94795 3.0023,0.54168 4.5716,0.88023 1.774,0.40626 2.5928,-0.71096 2.6952,-0.88023 -0.9553,1.52348 -2.7634,2.97925 -3.5822,4.33343 -1.0235,1.6589 -1.5352,4.7397 -1.7741,6.5341 0,0 -0.1023,0.3385 -0.9552,0.9479 -1.1258,0.7787 -2.5246,1.3881 -3.5139,1.5235 -0.88706,0.1016 -0.7165,-1.4558 -2.79756,-2.2006 -1.46698,-0.5417 -2.45635,-0.474 -3.44571,0.0339 -0.47762,0.237 -0.92113,0.5416 -1.33052,0.8463 0.10235,-0.7786 0.20469,-1.7604 0,-2.3698 z"
     fill="#b80015"
     id="path12" />
  <g
     opacity="0.15"
     id="g13"
     transform="translate(13.668979,6.1337232)">
    <path
       opacity="0.15"
       d="m 9.82559,38.0014 c 4.06981,0 7.36901,-0.5154 7.36901,-1.1511 0,-0.6357 -3.2992,-1.1511 -7.36901,-1.1511 -4.06981,0 -7.36905,0.5154 -7.36905,1.1511 0,0.6357 3.29924,1.1511 7.36905,1.1511 z"
       fill="#606060"
       id="path13" />
  </g>
  <path
     d="m 31.442879,30.624923 c 0,4.9768 -3.821,9.0055 -8.56309,9.0055 -4.74212,0 -8.563105,-4.0287 -8.563105,-9.0055 0,-4.9767 3.820985,-12.4248 8.563105,-12.4248 4.74209,0 8.56309,7.4481 8.56309,12.4248 z"
     fill="#2bb5b6"
     id="path14" />
  <path
     d="m 22.880289,40.275023 c -5.08328,0 -9.21131,-4.3335 -9.21131,-9.6487 0,-5.146 3.95745,-13.102 9.21131,-13.102 5.25389,0 9.21129,7.956 9.21129,13.102 0,5.3152 -4.128,9.6487 -9.21129,9.6487 z m 0,-21.4303 c -4.29861,0 -7.9149,7.245 -7.9149,11.7816 0,4.6043 3.54806,8.3622 7.9149,8.3622 4.36689,0 7.91489,-3.7579 7.91489,-8.3622 -0.0341,-4.5366 -3.6504,-11.7816 -7.91489,-11.7816 z"
     fill="#000000"
     id="path15" />
  <path
     d="m 17.899549,30.457623 c 0,-4.0965 2.11519,-9.9195 5.04917,-11.8831 -0.2047,-0.0339 -0.40939,-0.0678 -0.61409,-0.0678 -4.29861,0 -7.778443,7.3466 -7.778443,12.2217 0,4.8752 3.479833,8.8362 7.778443,8.8362 0.47762,0 0.95525,-0.0677 1.39875,-0.1354 -3.30925,-0.7786 -5.83383,-4.5027 -5.83383,-8.9716 z"
     fill="#238784"
     id="path16" />
  <path
     d="m 22.880289,40.275023 c -5.08328,0 -9.21131,-4.3335 -9.21131,-9.6487 0,-5.146 3.95745,-13.102 9.21131,-13.102 5.25389,0 9.21129,7.956 9.21129,13.102 0,5.3152 -4.128,9.6487 -9.21129,9.6487 z m 0,-21.4303 c -4.29861,0 -7.9149,7.245 -7.9149,11.7816 0,4.6043 3.54806,8.3622 7.9149,8.3622 4.36689,0 7.91489,-3.7579 7.91489,-8.3622 -0.0341,-4.5366 -3.6504,-11.7816 -7.91489,-11.7816 z"
     fill="#000000"
     id="path17" />
  <path
     d="m 34.683979,35.976023 c 0.273,1.5573 -0.7846,3.047 -2.354,3.284 -1.5693,0.2369 -3.0704,-0.7787 -3.3092,-2.3361 -0.2729,-1.5573 1.3305,-7.5835 1.9105,-6.1277 0.8188,2.3021 3.4798,3.6225 3.7527,5.1798 z"
     fill="#f75b58"
     id="path18" />
  <path
     d="m 31.818579,39.969923 c -0.7165,0 -1.4329,-0.2369 -2.047,-0.6432 -0.7847,-0.5417 -1.2964,-1.3542 -1.4329,-2.2683 -0.1706,-1.0834 0.7506,-6.7033 2.1152,-7.0757 0.3412,-0.1016 0.8188,0.0338 1.0235,0.6432 0.3753,1.0495 1.2282,1.8621 2.0469,2.6746 0.8529,0.8464 1.6376,1.6589 1.8082,2.6068 0.1706,0.9141 -0.0682,1.8621 -0.6141,2.6069 -0.5458,0.7786 -1.3646,1.2865 -2.2858,1.4219 -0.2047,0 -0.4094,0.0338 -0.614,0.0338 z m -1.1941,-8.1929 c -0.5117,1.3204 -1.1258,4.1303 -0.9894,5.0106 0.1024,0.5755 0.4094,1.0833 0.887,1.4219 0.4777,0.3385 1.0576,0.474 1.6717,0.3724 0.58,-0.1016 1.0917,-0.4063 1.4329,-0.8802 0.3412,-0.474 0.4776,-1.0496 0.3753,-1.6589 -0.1024,-0.5417 -0.7506,-1.2188 -1.4329,-1.8959 -0.6482,-0.6771 -1.3988,-1.422 -1.9446,-2.3699 z"
     fill="#000000"
     id="path19" />
  <path
     d="m 29.157279,31.234123 c 0.6141,0.4401 1.8082,0.5078 3.3434,0.237 1.0917,-0.2031 2.3199,-0.5756 3.6163,-1.1172 -1.0576,-2.1668 -3.0363,-3.4533 -6.0044,-3.9272 -1.3646,1.388 -1.2282,3.5209 -0.9553,4.8074 z m 1.0576,-3.6564 c 0,0 1.0917,1.8621 0.0683,2.0991 -0.887,0.2369 -0.6141,-1.422 -0.0683,-2.0991 z"
     fill="#f9a100"
     id="path20" />
  <path
     d="m 30.898479,32.318123 c -0.7846,0 -1.5693,-0.1354 -2.1152,-0.5078 l -0.2046,-0.1354 -0.0342,-0.2709 c -0.2729,-1.3203 -0.4776,-3.7917 1.1259,-5.3829 l 0.2388,-0.237 0.3411,0.0677 c 3.2069,0.5078 5.3562,1.9297 6.5162,4.2996 l 0.307,0.6094 -0.6482,0.2708 c -1.3305,0.5417 -2.6269,0.948 -3.7527,1.1511 -0.58,0.0677 -1.1941,0.1354 -1.7741,0.1354 z m -1.1599,-1.4896 c 0.4435,0.1693 1.3305,0.2708 2.6269,0.0339 0.8529,-0.1693 1.8082,-0.4402 2.7975,-0.8126 -0.887,-1.4219 -2.354,-2.336 -4.4009,-2.8099 0.2047,0.3385 0.8529,1.5573 0.4776,2.4037 -0.1365,0.3385 -0.4435,0.5755 -0.8188,0.6771 -0.2729,0.0677 -0.5458,0.0338 -0.7847,-0.0677 0.0342,0.2031 0.0683,0.4062 0.1024,0.5755 z"
     fill="#000000"
     id="path21" />
  <path
     d="m 26.326179,33.028523 c 2.5436,0 4.6056,-2.0463 4.6056,-4.5705 0,-2.5241 -2.062,-4.5704 -4.6056,-4.5704 -2.5437,0 -4.60569,2.0463 -4.60569,4.5704 0,2.5242 2.06199,4.5705 4.60569,4.5705 z"
     fill="#ffffff"
     id="path22" />
  <path
     d="m 26.326379,33.706523 c -1.16,0 -2.2858,-0.3724 -3.20693,-1.0834 -2.31989,-1.7605 -2.76339,-5.0444 -0.98936,-7.3466 1.77399,-2.3021 5.08329,-2.7422 7.40319,-0.9818 1.1258,0.8464 1.8422,2.0991 2.0128,3.4871 0.1706,1.3881 -0.1706,2.7761 -1.0576,3.8595 -0.8529,1.1172 -2.1152,1.8282 -3.5139,1.9975 -0.1706,0.0338 -0.4094,0.0677 -0.6482,0.0677 z m 0,-9.1748 c -0.1706,0 -0.3412,0 -0.5118,0.0339 -1.0576,0.1354 -1.9787,0.6771 -2.6269,1.4896 -1.33052,1.7266 -0.98936,4.198 0.7164,5.5184 0.8529,0.6432 1.8764,0.9141 2.934,0.7787 1.0576,-0.1355 1.9787,-0.6771 2.6269,-1.4897 0.6482,-0.8463 0.9212,-1.862 0.7847,-2.9115 -0.1365,-1.0495 -0.6823,-1.9636 -1.5011,-2.6068 -0.7164,-0.5417 -1.5352,-0.8126 -2.4222,-0.8126 z"
     fill="#000000"
     id="path23" />
  <path
     d="m 25.165879,29.711923 c 0.6218,0 1.1258,-0.5002 1.1258,-1.1172 0,-0.6171 -0.504,-1.1172 -1.1258,-1.1172 -0.6218,0 -1.1258,0.5001 -1.1258,1.1172 0,0.617 0.504,1.1172 1.1258,1.1172 z"
     fill="#000000"
     id="path24" />
  <path
     d="m 24.449279,25.716223 c 0.7506,-0.7787 1.7058,-1.1849 2.6952,-1.2526 -1.467,-0.4402 -3.1045,-0.0677 -4.23037,1.0833 -1.60345,1.6589 -1.53522,4.2658 0.13646,5.857 0.88701,0.8463 2.04691,1.2188 3.20691,1.151 -0.6141,-0.1692 -1.1941,-0.5078 -1.6717,-0.9818 -1.67167,-1.5911 -1.73991,-4.198 -0.1365,-5.8569 z"
     fill="#d1d3d4"
     id="path25" />
  <path
     d="m 26.326379,33.706523 c -1.16,0 -2.2858,-0.3724 -3.20693,-1.0834 -2.31989,-1.7605 -2.76339,-5.0444 -0.98936,-7.3466 1.77399,-2.3021 5.08329,-2.7422 7.40319,-0.9818 1.1258,0.8464 1.8422,2.0991 2.0128,3.4871 0.1706,1.3881 -0.1706,2.7761 -1.0576,3.8595 -0.8529,1.1172 -2.1152,1.8282 -3.5139,1.9975 -0.1706,0.0338 -0.4094,0.0677 -0.6482,0.0677 z m 0,-9.1748 c -0.1706,0 -0.3412,0 -0.5118,0.0339 -1.0576,0.1354 -1.9787,0.6771 -2.6269,1.4896 -1.33052,1.7266 -0.98936,4.198 0.7164,5.5184 0.8529,0.6432 1.8764,0.9141 2.934,0.7787 1.0576,-0.1355 1.9787,-0.6771 2.6269,-1.4897 0.6482,-0.8463 0.9212,-1.862 0.7847,-2.9115 -0.1365,-1.0495 -0.6823,-1.9636 -1.5011,-2.6068 -0.7164,-0.5417 -1.5352,-0.8126 -2.4222,-0.8126 z"
     fill="#000000"
     id="path26" />
</svg>
