<?xml version="1.0" encoding="UTF-8" standalone="no"?>
<svg
   width="23.404499"
   height="38.0014"
   viewBox="0 0 23.404499 38.0014"
   fill="none"
   version="1.1"
   id="svg26"
   sodipodi:docname="rewst.svg"
   inkscape:version="1.4.2 (f4327f4, 2025-05-13)"
   xmlns:inkscape="http://www.inkscape.org/namespaces/inkscape"
   xmlns:sodipodi="http://sodipodi.sourceforge.net/DTD/sodipodi-0.dtd"
   xmlns="http://www.w3.org/2000/svg"
   xmlns:svg="http://www.w3.org/2000/svg">
  <defs
     id="defs26" />
  <sodipodi:namedview
     id="namedview26"
     pagecolor="#ffffff"
     bordercolor="#000000"
     borderopacity="0.25"
     inkscape:showpageshadow="2"
     inkscape:pageopacity="0.0"
     inkscape:pagecheckerboard="0"
     inkscape:deskcolor="#d1d1d1"
     inkscape:zoom="4.7552931"
     inkscape:cx="41.637812"
     inkscape:cy="16.087336"
     inkscape:window-width="3840"
     inkscape:window-height="2054"
     inkscape:window-x="-11"
     inkscape:window-y="-11"
     inkscape:window-maximized="1"
     inkscape:current-layer="svg26" />
  <path
     d="m 20.5714,6.21001 c -0.9553,1.52348 -2.7634,2.97925 -3.6163,4.33349 -1.0235,1.6589 -1.5352,4.7397 -1.774,6.534 -1.9447,-1.0156 -4.8786,-1.5912 -8.76785,-0.5078 -1.39875,0.4062 -2.59281,1.0495 -3.58218,1.8282 0.2047,-0.711 0.37528,-1.9636 -0.10235,-3.2163 -0.75055,-1.9974 0,-5.28138 1.33053,-4.8413 1.36464,0.4063 2.04696,3.4194 2.04696,3.4194 0,0 0.10234,0.5078 -0.03412,-1.625 -0.13646,-2.1329 1.67168,-6.87264 3.58218,-7.00806 1.80813,-0.13542 1.22813,2.9454 1.15993,3.35166 0.0341,-0.13542 0.1706,-0.64325 0.7164,-2.70841 0.7506,-2.7761198 6.1068,-5.99235884 8.7678,-3.1823798 1.2282,1.21878 1.0235,2.4375698 0.273,3.6224998 z"
     fill="#f75b58"
     id="path7" />
  <path
     d="m 2.83161,19.9217 c -0.27293,0 -0.54586,-0.0677 -0.81879,-0.237 C 1.46697,19.3461 1.19404,18.669 1.36462,18.0596 1.50108,17.5857 1.63755,16.6716 1.29639,15.7575 0.614067,13.9632 0.784645,10.9839 2.11517,9.6297 2.76337,8.9526 3.65039,8.71562 4.50329,8.98646 4.67387,9.05417 4.84445,9.12188 5.01503,9.18959 5.79969,6.6166 7.40314,3.8066202 9.58657,3.6373402 c 0.44353,-0.03385 0.85293,0.03386 1.22813,0.20313 1.0918,-1.6589 3.0705,-3.08081304 5.1857,-3.62249604 2.1493,-0.541682 4.0939,-0.06771 5.4244,1.35420604 1.0576,1.08336 1.9787,2.9453998 0.4094,5.4506798 0,0 0,0 0,0.03385 0,0.03386 -0.0341,0.03386 -0.0341,0.06771 -0.5459,0.88024 -1.2964,1.65891 -2.0129,2.43757 -0.614,0.67711 -1.194,1.28651 -1.5352,1.82821 -0.6482,1.0495 -1.2282,3.2162 -1.5693,5.9246 -0.0682,0.474 -0.3753,0.9141 -0.7847,1.1511 -0.4435,0.237 -0.9552,0.237 -1.3987,0 -1.4329,-0.8125 -3.9234,-1.4896 -7.67613,-0.4401 -1.12582,0.3047 -2.1493,0.8464 -3.03632,1.5573 -0.27293,0.237 -0.61408,0.3386 -0.95524,0.3386 z M 4.05978,12.4058 C 3.92332,13.0829 3.8892,13.997 4.16213,14.708 4.29859,15.0465 4.36682,15.3851 4.43506,15.7236 4.84445,15.5544 5.25384,15.3851 5.69735,15.2497 5.21972,15.1142 4.81033,14.708 4.67387,14.0986 4.5374,13.523 4.29859,12.8798 4.05978,12.4058 Z m 6.41382,2.099 c 1.3646,0 2.5246,0.2032 3.5139,0.5079 0.3412,-1.8621 0.8529,-3.8934 1.7058,-5.21372 0.4776,-0.77867 1.1941,-1.55734 1.9105,-2.30215 0.6482,-0.6771 1.2964,-1.38806 1.7058,-2.03131 0,-0.03385 0.0341,-0.03385 0.0341,-0.06771 0.5459,-0.88023 0.4094,-1.28649 -0.0682,-1.7604698 -0.58,-0.60939 -1.4329,-0.77867 -2.4905,-0.50782 C 14.9769,3.5696302 13.3393,5.09312 13.0664,6.14262 12.5205,8.24164 12.3841,8.74947 12.35,8.88489 12.1453,9.66356 11.3606,10.1375 10.5418,9.9344 9.75715,9.76512 9.24541,8.98646 9.41599,8.20779 9.51833,7.69996 9.55245,7.22599 9.51834,6.88744 8.69955,7.73382 7.50549,10.4422 7.60784,12.0673 c 0.03412,0.6432 0.06823,1.151 0.06823,1.4219 0.03412,0.6771 -0.17058,1.0834 -0.40939,1.3542 1.15995,-0.237 2.25165,-0.3386 3.20692,-0.3386 z"
     fill="#000000"
     id="path8" />
  <path
     d="m 3.17252,15.8582 c -0.6482,-1.9636 -0.06823,-3.3178 0.03412,-3.4871 -0.03412,0.1016 -0.06824,0.5078 0.20469,1.0495 0.78467,1.5912 3.4116,1.7605 3.4116,1.7605 0,0 -0.23881,-0.6433 -0.23881,-2.4376 0,-3.45321 1.7058,-5.48452 1.7058,-5.48452 0,0 -0.2047,1.15107 0.10234,1.92974 0.51174,1.38808 2.59284,1.65888 2.59284,1.65888 0,0 -0.1706,-3.41935 2.3199,-4.63813 1.9446,-0.94795 3.0022,0.54168 4.5715,0.88023 1.774,0.40626 2.5928,-0.71096 2.6952,-0.88023 -0.9553,1.52348 -2.7634,2.97925 -3.5822,4.33343 -1.0235,1.6589 -1.5352,4.7397 -1.774,6.5341 0,0 -0.1024,0.3385 -0.9553,0.9479 -1.1258,0.7787 -2.5246,1.3881 -3.5139,1.5235 C 9.85925,19.65 10.0298,18.0926 7.94876,17.3478 6.48177,16.8061 5.4924,16.8738 4.50304,17.3817 c -0.47762,0.237 -0.92113,0.5416 -1.33052,0.8463 0.10235,-0.7786 0.2047,-1.7604 0,-2.3698 z"
     fill="#b80015"
     id="path9" />
  <path
     d="m 10.5757,21.0723 c -1.12578,0 -1.70575,-0.8464 -1.97868,-1.2865 C 8.32409,19.3795 8.08528,19.0071 7.36885,18.7363 6.27714,18.33 5.69716,18.3977 5.11719,18.7024 4.74192,18.9055 4.36664,19.1425 4.02548,19.3795 3.51374,19.7519 2.86554,19.7858 2.31968,19.4472 1.77383,19.1087 1.53502,18.4993 1.63737,17.8899 1.87618,16.6711 1.77383,16.2648 1.77383,16.2648 0.955044,13.7934 1.7056,11.9991 1.87618,11.6605 c 0.30704,-0.6771 1.09171,-1.0156 1.84226,-0.7786 0.71643,0.237 1.12583,0.9141 1.02348,1.6589 0,0.0338 0,0.0677 0.06823,0.1692 0.06823,0.1355 0.17058,0.237 0.30704,0.3386 0,-0.1016 0,-0.237 0,-0.3724 0,-3.96106 1.97873,-6.36478 2.08108,-6.46634 0.4435,-0.50783 1.15994,-0.67711 1.77403,-0.40626 0.61409,0.27084 0.95525,0.94794 0.8529,1.62504 -0.06823,0.3047 -0.06823,0.81253 0,1.04951 0.3412,-1.32035 1.1599,-2.87769 2.8657,-3.69021 1.9788,-0.9817998 3.514,-0.20313 4.5033,0.33855 0.3753,0.20313 0.7165,0.37241 1.0576,0.44012 0.7165,0.16927 1.0235,-0.13542 1.1259,-0.27084 0.4435,-0.6771 1.3646,-0.84638 2.0469,-0.40626 0.6823,0.44011 0.887,1.3542 0.4435,2.0313 -0.5458,0.88024 -1.3305,1.69276 -2.0469,2.50528 -0.6141,0.67711 -1.1941,1.28651 -1.5352,1.82821 -0.6482,1.0495 -1.2282,3.2162 -1.5694,5.9246 0,0.1016 -0.0341,0.2032 -0.0682,0.2709 -0.1706,0.5416 -0.6823,1.1172 -1.5352,1.7266 -1.3306,0.9479 -2.9681,1.625 -4.1963,1.7943 -0.1365,0.1016 -0.2388,0.1016 -0.3412,0.1016 z M 8.15351,15.8924 c 0.06824,0.0339 0.17058,0.0677 0.23882,0.1016 1.5011,0.5417 2.18337,1.4558 2.59277,2.0313 0.7165,-0.2031 1.6035,-0.6432 2.354,-1.1511 0.2047,-0.1354 0.3071,-0.237 0.4094,-0.3047 0.3071,-2.2006 0.887,-5.0444 1.9446,-6.73714 0.3071,-0.50783 0.7165,-0.9818 1.1259,-1.45577 -0.3753,-0.13543 -0.7165,-0.33856 -1.0576,-0.50783 -0.887,-0.47397 -1.1941,-0.57554 -1.8082,-0.3047 -1.5693,0.74481 -1.5011,3.18234 -1.5011,3.21624 0,0.4401 -0.1706,0.8802 -0.4776,1.1511 -0.3412,0.3047 -0.7847,0.4401 -1.1941,0.3724 -0.2047,-0.0339 -1.53518,-0.237 -2.59277,-1.0495 -0.06823,0.4401 -0.13646,0.9479 -0.13646,1.4557 0,1.2527 0.10234,1.8282 0.13646,1.9298 0.2047,0.4401 0.17058,0.8802 -0.03412,1.2526 z M 4.67368,12.6085 v 0.0338 z"
     fill="#000000"
     id="path10" />
  <path
     d="m 20.5721,6.21001 c -0.9552,1.52348 -2.7634,2.97925 -3.6163,4.33349 -1.0235,1.6589 -1.5352,4.7397 -1.774,6.534 -1.9446,-1.0156 -4.8786,-1.5912 -8.76782,-0.5078 -1.39875,0.4062 -2.59281,1.0495 -3.58217,1.8282 0.20469,-0.711 0.37527,-1.9636 -0.10235,-3.2163 -0.75055,-1.9974 0,-5.28138 1.33052,-4.8413 1.36464,0.4063 2.04696,3.4194 2.04696,3.4194 0,0 0.10235,0.5078 -0.03412,-1.625 C 5.93636,10.0018 7.74451,5.26206 9.655,5.12664 c 1.8081,-0.13542 1.2282,2.9454 1.1599,3.35166 0.0342,-0.13542 0.1706,-0.64325 0.7165,-2.70841 0.7505,-2.7761198 6.1067,-5.99235884 8.7678,-3.1823798 1.2282,1.21878 1.0235,2.4375698 0.2729,3.6224998 z"
     fill="#f75b58"
     id="path11" />
  <path
     d="m 3.17301,15.8582 c -0.6482,-1.9636 -0.06823,-3.3178 0.03411,-3.4871 -0.03411,0.1016 -0.06823,0.5078 0.2047,1.0495 0.78467,1.5912 3.4116,1.7605 3.4116,1.7605 0,0 -0.23881,-0.6433 -0.23881,-2.4376 0,-3.45321 1.70579,-5.48452 1.70579,-5.48452 0,0 -0.20469,1.15107 0.10235,1.92974 0.51174,1.38808 2.59285,1.65888 2.59285,1.65888 0,0 -0.1706,-3.41935 2.3198,-4.63813 1.9447,-0.94795 3.0023,0.54168 4.5716,0.88023 1.774,0.40626 2.5928,-0.71096 2.6952,-0.88023 -0.9553,1.52348 -2.7634,2.97925 -3.5822,4.33343 -1.0235,1.6589 -1.5352,4.7397 -1.7741,6.5341 0,0 -0.1023,0.3385 -0.9552,0.9479 -1.1258,0.7787 -2.5246,1.3881 -3.5139,1.5235 C 9.85974,19.65 10.0303,18.0926 7.94924,17.3478 6.48226,16.8061 5.49289,16.8738 4.50353,17.3817 4.02591,17.6187 3.5824,17.9233 3.17301,18.228 c 0.10235,-0.7786 0.20469,-1.7604 0,-2.3698 z"
     fill="#b80015"
     id="path12" />
  <g
     opacity="0.15"
     id="g13">
    <path
       opacity="0.15"
       d="m 9.82559,38.0014 c 4.06981,0 7.36901,-0.5154 7.36901,-1.1511 0,-0.6357 -3.2992,-1.1511 -7.36901,-1.1511 -4.06981,0 -7.36905,0.5154 -7.36905,1.1511 0,0.6357 3.29924,1.1511 7.36905,1.1511 z"
       fill="#606060"
       id="path13" />
  </g>
  <path
     d="m 17.7739,24.4912 c 0,4.9768 -3.821,9.0055 -8.56309,9.0055 -4.74212,0 -8.563105,-4.0287 -8.563105,-9.0055 0,-4.9767 3.820985,-12.4248 8.563105,-12.4248 4.74209,0 8.56309,7.4481 8.56309,12.4248 z"
     fill="#2bb5b6"
     id="path14" />
  <path
     d="M 9.21131,34.1413 C 4.12803,34.1413 0,29.8078 0,24.4926 c 0,-5.146 3.95745,-13.102 9.21131,-13.102 5.25389,0 9.21129,7.956 9.21129,13.102 0,5.3152 -4.128,9.6487 -9.21129,9.6487 z m 0,-21.4303 c -4.29861,0 -7.9149,7.245 -7.9149,11.7816 0,4.6043 3.54806,8.3622 7.9149,8.3622 4.36689,0 7.91489,-3.7579 7.91489,-8.3622 C 17.0921,19.956 13.4758,12.711 9.21131,12.711 Z"
     fill="#000000"
     id="path15" />
  <path
     d="m 4.23057,24.3239 c 0,-4.0965 2.11519,-9.9195 5.04917,-11.8831 -0.2047,-0.0339 -0.40939,-0.0678 -0.61409,-0.0678 -4.29861,0 -7.778443,7.3466 -7.778443,12.2217 0,4.8752 3.479833,8.8362 7.778443,8.8362 0.47762,0 0.95525,-0.0677 1.39875,-0.1354 C 6.75515,32.5169 4.23057,28.7928 4.23057,24.3239 Z"
     fill="#238784"
     id="path16" />
  <path
     d="M 9.21131,34.1413 C 4.12803,34.1413 0,29.8078 0,24.4926 c 0,-5.146 3.95745,-13.102 9.21131,-13.102 5.25389,0 9.21129,7.956 9.21129,13.102 0,5.3152 -4.128,9.6487 -9.21129,9.6487 z m 0,-21.4303 c -4.29861,0 -7.9149,7.245 -7.9149,11.7816 0,4.6043 3.54806,8.3622 7.9149,8.3622 4.36689,0 7.91489,-3.7579 7.91489,-8.3622 C 17.0921,19.956 13.4758,12.711 9.21131,12.711 Z"
     fill="#000000"
     id="path17" />
  <path
     d="m 21.015,29.8423 c 0.273,1.5573 -0.7846,3.047 -2.354,3.284 -1.5693,0.2369 -3.0704,-0.7787 -3.3092,-2.3361 -0.2729,-1.5573 1.3305,-7.5835 1.9105,-6.1277 0.8188,2.3021 3.4798,3.6225 3.7527,5.1798 z"
     fill="#f75b58"
     id="path18" />
  <path
     d="m 18.1496,33.8362 c -0.7165,0 -1.4329,-0.2369 -2.047,-0.6432 -0.7847,-0.5417 -1.2964,-1.3542 -1.4329,-2.2683 -0.1706,-1.0834 0.7506,-6.7033 2.1152,-7.0757 0.3412,-0.1016 0.8188,0.0338 1.0235,0.6432 0.3753,1.0495 1.2282,1.8621 2.0469,2.6746 0.8529,0.8464 1.6376,1.6589 1.8082,2.6068 0.1706,0.9141 -0.0682,1.8621 -0.6141,2.6069 -0.5458,0.7786 -1.3646,1.2865 -2.2858,1.4219 -0.2047,0 -0.4094,0.0338 -0.614,0.0338 z m -1.1941,-8.1929 c -0.5117,1.3204 -1.1258,4.1303 -0.9894,5.0106 0.1024,0.5755 0.4094,1.0833 0.887,1.4219 0.4777,0.3385 1.0576,0.474 1.6717,0.3724 0.58,-0.1016 1.0917,-0.4063 1.4329,-0.8802 0.3412,-0.474 0.4776,-1.0496 0.3753,-1.6589 -0.1024,-0.5417 -0.7506,-1.2188 -1.4329,-1.8959 -0.6482,-0.6771 -1.3988,-1.422 -1.9446,-2.3699 z"
     fill="#000000"
     id="path19" />
  <path
     d="m 15.4883,25.1004 c 0.6141,0.4401 1.8082,0.5078 3.3434,0.237 1.0917,-0.2031 2.3199,-0.5756 3.6163,-1.1172 -1.0576,-2.1668 -3.0363,-3.4533 -6.0044,-3.9272 -1.3646,1.388 -1.2282,3.5209 -0.9553,4.8074 z m 1.0576,-3.6564 c 0,0 1.0917,1.8621 0.0683,2.0991 -0.887,0.2369 -0.6141,-1.422 -0.0683,-2.0991 z"
     fill="#f9a100"
     id="path20" />
  <path
     d="m 17.2295,26.1844 c -0.7846,0 -1.5693,-0.1354 -2.1152,-0.5078 L 14.9097,25.5412 14.8755,25.2703 C 14.6026,23.95 14.3979,21.4786 16.0014,19.8874 l 0.2388,-0.237 0.3411,0.0677 c 3.2069,0.5078 5.3562,1.9297 6.5162,4.2996 l 0.307,0.6094 -0.6482,0.2708 c -1.3305,0.5417 -2.6269,0.948 -3.7527,1.1511 -0.58,0.0677 -1.1941,0.1354 -1.7741,0.1354 z m -1.1599,-1.4896 c 0.4435,0.1693 1.3305,0.2708 2.6269,0.0339 0.8529,-0.1693 1.8082,-0.4402 2.7975,-0.8126 -0.887,-1.4219 -2.354,-2.336 -4.4009,-2.8099 0.2047,0.3385 0.8529,1.5573 0.4776,2.4037 -0.1365,0.3385 -0.4435,0.5755 -0.8188,0.6771 -0.2729,0.0677 -0.5458,0.0338 -0.7847,-0.0677 0.0342,0.2031 0.0683,0.4062 0.1024,0.5755 z"
     fill="#000000"
     id="path21" />
  <path
     d="m 12.6572,26.8948 c 2.5436,0 4.6056,-2.0463 4.6056,-4.5705 0,-2.5241 -2.062,-4.5704 -4.6056,-4.5704 -2.5437,0 -4.60569,2.0463 -4.60569,4.5704 0,2.5242 2.06199,4.5705 4.60569,4.5705 z"
     fill="#ffffff"
     id="path22" />
  <path
     d="m 12.6574,27.5728 c -1.16,0 -2.2858,-0.3724 -3.20693,-1.0834 C 7.13058,24.7289 6.68708,21.445 8.46111,19.1428 10.2351,16.8407 13.5444,16.4006 15.8643,18.161 c 1.1258,0.8464 1.8422,2.0991 2.0128,3.4871 0.1706,1.3881 -0.1706,2.7761 -1.0576,3.8595 -0.8529,1.1172 -2.1152,1.8282 -3.5139,1.9975 -0.1706,0.0338 -0.4094,0.0677 -0.6482,0.0677 z m 0,-9.1748 c -0.1706,0 -0.3412,0 -0.5118,0.0339 -1.0576,0.1354 -1.9787,0.6771 -2.6269,1.4896 -1.33052,1.7266 -0.98936,4.198 0.7164,5.5184 0.8529,0.6432 1.8764,0.9141 2.934,0.7787 1.0576,-0.1355 1.9787,-0.6771 2.6269,-1.4897 0.6482,-0.8463 0.9212,-1.862 0.7847,-2.9115 -0.1365,-1.0495 -0.6823,-1.9636 -1.5011,-2.6068 -0.7164,-0.5417 -1.5352,-0.8126 -2.4222,-0.8126 z"
     fill="#000000"
     id="path23" />
  <path
     d="m 11.4969,23.5782 c 0.6218,0 1.1258,-0.5002 1.1258,-1.1172 0,-0.6171 -0.504,-1.1172 -1.1258,-1.1172 -0.6218,0 -1.1258,0.5001 -1.1258,1.1172 0,0.617 0.504,1.1172 1.1258,1.1172 z"
     fill="#000000"
     id="path24" />
  <path
     d="m 10.7803,19.5825 c 0.7506,-0.7787 1.7058,-1.1849 2.6952,-1.2526 -1.467,-0.4402 -3.1045,-0.0677 -4.23037,1.0833 -1.60345,1.6589 -1.53522,4.2658 0.13646,5.857 0.88701,0.8463 2.04691,1.2188 3.20691,1.151 -0.6141,-0.1692 -1.1941,-0.5078 -1.6717,-0.9818 -1.67167,-1.5911 -1.73991,-4.198 -0.1365,-5.8569 z"
     fill="#d1d3d4"
     id="path25" />
  <path
     d="m 12.6574,27.5728 c -1.16,0 -2.2858,-0.3724 -3.20693,-1.0834 C 7.13058,24.7289 6.68708,21.445 8.46111,19.1428 10.2351,16.8407 13.5444,16.4006 15.8643,18.161 c 1.1258,0.8464 1.8422,2.0991 2.0128,3.4871 0.1706,1.3881 -0.1706,2.7761 -1.0576,3.8595 -0.8529,1.1172 -2.1152,1.8282 -3.5139,1.9975 -0.1706,0.0338 -0.4094,0.0677 -0.6482,0.0677 z m 0,-9.1748 c -0.1706,0 -0.3412,0 -0.5118,0.0339 -1.0576,0.1354 -1.9787,0.6771 -2.6269,1.4896 -1.33052,1.7266 -0.98936,4.198 0.7164,5.5184 0.8529,0.6432 1.8764,0.9141 2.934,0.7787 1.0576,-0.1355 1.9787,-0.6771 2.6269,-1.4897 0.6482,-0.8463 0.9212,-1.862 0.7847,-2.9115 -0.1365,-1.0495 -0.6823,-1.9636 -1.5011,-2.6068 -0.7164,-0.5417 -1.5352,-0.8126 -2.4222,-0.8126 z"
     fill="#000000"
     id="path26" />
</svg>
