<?xml version="1.0" encoding="UTF-8" standalone="no"?>
<svg
   width="30.199354"
   height="49.034065"
   viewBox="0 0 23.404499 31.872142"
   fill="none"
   version="1.1"
   id="svg26"
   sodipodi:docname="rewst.svg"
   inkscape:version="1.4.2 (f4327f4, 2025-05-13)"
   xmlns:inkscape="http://www.inkscape.org/namespaces/inkscape"
   xmlns:sodipodi="http://sodipodi.sourceforge.net/DTD/sodipodi-0.dtd"
   xmlns="http://www.w3.org/2000/svg"
   xmlns:svg="http://www.w3.org/2000/svg">
  <defs
     id="defs26" />
  <sodipodi:namedview
     id="namedview26"
     pagecolor="#ffffff"
     bordercolor="#000000"
     borderopacity="0.25"
     inkscape:showpageshadow="2"
     inkscape:pageopacity="0.0"
     inkscape:pagecheckerboard="0"
     inkscape:deskcolor="#d1d1d1"
     inkscape:zoom="4.7552931"
     inkscape:cx="55.201645"
     inkscape:cy="22.185804"
     inkscape:window-width="1920"
     inkscape:window-height="1009"
     inkscape:window-x="-8"
     inkscape:window-y="-8"
     inkscape:window-maximized="1"
     inkscape:current-layer="svg26" />
  <path
     d="m 20.5714,2.4600102 c -0.9553,1.52348 -2.7634,2.97925 -3.6163,4.33349 -1.0235,1.6589 -1.5352,4.7396998 -1.774,6.5339998 -1.9447,-1.0156 -4.8786,-1.5912 -8.76785,-0.5078 -1.39875,0.4062 -2.59281,1.0495 -3.58218,1.8282 0.2047,-0.711 0.37528,-1.9636 -0.10235,-3.2163 -0.75055,-1.9973998 0,-5.2813798 1.33053,-4.8412998 1.36464,0.4063 2.04696,3.4193998 2.04696,3.4193998 0,0 0.10234,0.5078 -0.03412,-1.6249998 -0.13646,-2.1329 1.67168,-6.87264 3.58218,-7.00806 1.80813,-0.13542 1.22813,2.9454 1.15993,3.35166 0.0341,-0.13542 0.1706,-0.64325 0.7164,-2.70841 0.7506,-2.77612004 6.1068,-5.992359 8.7678,-3.18238 1.2282,1.21877996 1.0235,2.43757 0.273,3.6225 z"
     fill="#f75b58"
     id="path7" />
  <path
     d="m 2.83161,16.1717 c -0.27293,0 -0.54586,-0.0677 -0.81879,-0.237 C 1.46697,15.5961 1.19404,14.919 1.36462,14.3096 1.50108,13.8357 1.63755,12.9216 1.29639,12.0075 0.614067,10.2132 0.784645,7.2339002 2.11517,5.8797002 c 0.6482,-0.6771 1.53522,-0.91408 2.38812,-0.64324 0.17058,0.06771 0.34116,0.13542 0.51174,0.20313 0.78466,-2.57299 2.38811,-5.38297004 4.57154,-5.55225004 0.44353,-0.03385 0.85293,0.03386 1.22813,0.20313 1.0918,-1.65889996 3.0705,-3.08081296 5.1857,-3.62249596 2.1493,-0.541682 4.0939,-0.06771 5.4244,1.354206 1.0576,1.08336 1.9787,2.94539996 0.4094,5.45068 0,0 0,0 0,0.03385 0,0.03386 -0.0341,0.03386 -0.0341,0.06771 -0.5459,0.88024 -1.2964,1.65891 -2.0129,2.43757 -0.614,0.67711 -1.194,1.28651 -1.5352,1.82821 -0.6482,1.0495 -1.2282,3.2161998 -1.5693,5.9245998 -0.0682,0.474 -0.3753,0.9141 -0.7847,1.1511 -0.4435,0.237 -0.9552,0.237 -1.3987,0 -1.4329,-0.8125 -3.9234,-1.4896 -7.67613,-0.4401 -1.12582,0.3047 -2.1493,0.8464 -3.03632,1.5573 -0.27293,0.237 -0.61408,0.3386 -0.95524,0.3386 z M 4.05978,8.6558002 C 3.92332,9.3329002 3.8892,10.247 4.16213,10.958 4.29859,11.2965 4.36682,11.6351 4.43506,11.9736 4.84445,11.8044 5.25384,11.6351 5.69735,11.4997 5.21972,11.3642 4.81033,10.958 4.67387,10.3486 4.5374,9.7730002 4.29859,9.1298002 4.05978,8.6558002 Z M 10.4736,10.7548 c 1.3646,0 2.5246,0.2032 3.5139,0.5079 0.3412,-1.8620998 0.8529,-3.8933998 1.7058,-5.2137198 0.4776,-0.77867 1.1941,-1.55734 1.9105,-2.30215 0.6482,-0.6771 1.2964,-1.38806 1.7058,-2.03131 0,-0.03385 0.0341,-0.03385 0.0341,-0.06771 0.5459,-0.88023004 0.4094,-1.28649004 -0.0682,-1.76047004 -0.58,-0.60939 -1.4329,-0.77867 -2.4905,-0.50782 -1.8081,0.44011 -3.4457,1.96360004 -3.7186,3.01310004 -0.5459,2.09902 -0.6823,2.60685 -0.7164,2.74227 -0.2047,0.77867 -0.9894,1.25261 -1.8082,1.04951 -0.78465,-0.16928 -1.29639,-0.94794 -1.12581,-1.72661 0.10234,-0.50783 0.13646,-0.9818 0.10235,-1.32035 -0.81879,0.84638 -2.01285,3.55476 -1.9105,5.17986 0.03412,0.6432 0.06823,1.151 0.06823,1.4219 C 7.71019,10.4163 7.50549,10.8226 7.26668,11.0934 8.42663,10.8564 9.51833,10.7548 10.4736,10.7548 Z"
     fill="#000000"
     id="path8" />
  <path
     d="M 3.17252,12.1082 C 2.52432,10.1446 3.10429,8.7904002 3.20664,8.6211002 c -0.03412,0.1016 -0.06824,0.5078 0.20469,1.0495 C 4.196,11.2618 6.82293,11.4311 6.82293,11.4311 c 0,0 -0.23881,-0.6433 -0.23881,-2.4375998 0,-3.45321 1.7058,-5.48452 1.7058,-5.48452 0,0 -0.2047,1.15107 0.10234,1.92974 0.51174,1.38808 2.59284,1.65888 2.59284,1.65888 0,0 -0.1706,-3.41935 2.3199,-4.63813 1.9446,-0.94795 3.0022,0.54168 4.5715,0.88023 1.774,0.40626 2.5928,-0.71096 2.6952,-0.88023 -0.9553,1.52348 -2.7634,2.97925 -3.5822,4.33343 -1.0235,1.6589 -1.5352,4.7396998 -1.774,6.5340998 0,0 -0.1024,0.3385 -0.9553,0.9479 -1.1258,0.7787 -2.5246,1.3881 -3.5139,1.5235 C 9.85925,15.9 10.0298,14.3426 7.94876,13.5978 6.48177,13.0561 5.4924,13.1238 4.50304,13.6317 c -0.47762,0.237 -0.92113,0.5416 -1.33052,0.8463 0.10235,-0.7786 0.2047,-1.7604 0,-2.3698 z"
     fill="#b80015"
     id="path9" />
  <path
     d="m 10.5757,17.3223 c -1.12578,0 -1.70575,-0.8464 -1.97868,-1.2865 C 8.32409,15.6295 8.08528,15.2571 7.36885,14.9863 6.27714,14.58 5.69716,14.6477 5.11719,14.9524 4.74192,15.1555 4.36664,15.3925 4.02548,15.6295 3.51374,16.0019 2.86554,16.0358 2.31968,15.6972 1.77383,15.3587 1.53502,14.7493 1.63737,14.1399 1.87618,12.9211 1.77383,12.5148 1.77383,12.5148 0.955044,10.0434 1.7056,8.2491002 1.87618,7.9105002 c 0.30704,-0.6771 1.09171,-1.0156 1.84226,-0.7786 0.71643,0.237 1.12583,0.9141 1.02348,1.6589 0,0.0338 0,0.0677 0.06823,0.1692 0.06823,0.1355 0.17058,0.237 0.30704,0.3386 0,-0.1016 0,-0.237 0,-0.3724 0,-3.96106 1.97873,-6.36478 2.08108,-6.46634 0.4435,-0.50783 1.15994,-0.67711 1.77403,-0.40626 0.61409,0.27084 0.95525,0.94794 0.8529,1.62504 -0.06823,0.3047 -0.06823,0.81253 0,1.04951 0.3412,-1.32035 1.1599,-2.87769 2.8657,-3.69021 1.9788,-0.98180004 3.514,-0.20313004 4.5033,0.33855 0.3753,0.20313 0.7165,0.37241 1.0576,0.44012 0.7165,0.16927 1.0235,-0.13542 1.1259,-0.27084 0.4435,-0.67710004 1.3646,-0.84638004 2.0469,-0.40626 0.6823,0.44011 0.887,1.3542 0.4435,2.0313 -0.5458,0.88024 -1.3305,1.69276 -2.0469,2.50528 -0.6141,0.67711 -1.1941,1.28651 -1.5352,1.82821 -0.6482,1.0495 -1.2282,3.2161998 -1.5694,5.9245998 0,0.1016 -0.0341,0.2032 -0.0682,0.2709 -0.1706,0.5416 -0.6823,1.1172 -1.5352,1.7266 -1.3306,0.9479 -2.9681,1.625 -4.1963,1.7943 -0.1365,0.1016 -0.2388,0.1016 -0.3412,0.1016 z M 8.15351,12.1424 c 0.06824,0.0339 0.17058,0.0677 0.23882,0.1016 1.5011,0.5417 2.18337,1.4558 2.59277,2.0313 0.7165,-0.2031 1.6035,-0.6432 2.354,-1.1511 0.2047,-0.1354 0.3071,-0.237 0.4094,-0.3047 0.3071,-2.2006 0.887,-5.0443998 1.9446,-6.7371398 0.3071,-0.50783 0.7165,-0.9818 1.1259,-1.45577 -0.3753,-0.13543 -0.7165,-0.33856 -1.0576,-0.50783 -0.887,-0.47397 -1.1941,-0.57554 -1.8082,-0.3047 -1.5693,0.74481 -1.5011,3.18234 -1.5011,3.21624 0,0.4401 -0.1706,0.8802 -0.4776,1.1511 -0.3412,0.3047 -0.7847,0.4401 -1.1941,0.3724 -0.2047,-0.0339 -1.53518,-0.237 -2.59277,-1.0495 -0.06823,0.4401 -0.13646,0.9479 -0.13646,1.4557 0,1.2526998 0.10234,1.8281998 0.13646,1.9297998 0.2047,0.4401 0.17058,0.8802 -0.03412,1.2526 z M 4.67368,8.8585002 v 0.0338 z"
     fill="#000000"
     id="path10" />
  <path
     d="m 20.5721,2.4600102 c -0.9552,1.52348 -2.7634,2.97925 -3.6163,4.33349 -1.0235,1.6589 -1.5352,4.7396998 -1.774,6.5339998 -1.9446,-1.0156 -4.8786,-1.5912 -8.76782,-0.5078 -1.39875,0.4062 -2.59281,1.0495 -3.58217,1.8282 0.20469,-0.711 0.37527,-1.9636 -0.10235,-3.2163 -0.75055,-1.9973998 0,-5.2813798 1.33052,-4.8412998 1.36464,0.4063 2.04696,3.4193998 2.04696,3.4193998 0,0 0.10235,0.5078 -0.03412,-1.6249998 -0.13646,-2.1329 1.67169,-6.87264 3.58218,-7.00806 1.8081,-0.13542 1.2282,2.9454 1.1599,3.35166 0.0342,-0.13542 0.1706,-0.64325 0.7165,-2.70841 0.7505,-2.77612004 6.1067,-5.992359 8.7678,-3.18238 1.2282,1.21877996 1.0235,2.43757 0.2729,3.6225 z"
     fill="#f75b58"
     id="path11" />
  <path
     d="M 3.17301,12.1082 C 2.52481,10.1446 3.10478,8.7904002 3.20712,8.6211002 c -0.03411,0.1016 -0.06823,0.5078 0.2047,1.0495 0.78467,1.5911998 3.4116,1.7604998 3.4116,1.7604998 0,0 -0.23881,-0.6433 -0.23881,-2.4375998 0,-3.45321 1.70579,-5.48452 1.70579,-5.48452 0,0 -0.20469,1.15107 0.10235,1.92974 0.51174,1.38808 2.59285,1.65888 2.59285,1.65888 0,0 -0.1706,-3.41935 2.3198,-4.63813 1.9447,-0.94795 3.0023,0.54168 4.5716,0.88023 1.774,0.40626 2.5928,-0.71096 2.6952,-0.88023 -0.9553,1.52348 -2.7634,2.97925 -3.5822,4.33343 -1.0235,1.6589 -1.5352,4.7396998 -1.7741,6.5340998 0,0 -0.1023,0.3385 -0.9552,0.9479 -1.1258,0.7787 -2.5246,1.3881 -3.5139,1.5235 C 9.85974,15.9 10.0303,14.3426 7.94924,13.5978 6.48226,13.0561 5.49289,13.1238 4.50353,13.6317 4.02591,13.8687 3.5824,14.1733 3.17301,14.478 c 0.10235,-0.7786 0.20469,-1.7604 0,-2.3698 z"
     fill="#b80015"
     id="path12" />
  <g
     opacity="0.15"
     id="g13"
     transform="translate(0,-3.7499998)">
    <path
       opacity="0.15"
       d="m 9.82559,38.0014 c 4.06981,0 7.36901,-0.5154 7.36901,-1.1511 0,-0.6357 -3.2992,-1.1511 -7.36901,-1.1511 -4.06981,0 -7.36905,0.5154 -7.36905,1.1511 0,0.6357 3.29924,1.1511 7.36905,1.1511 z"
       fill="#606060"
       id="path13" />
  </g>
  <path
     d="m 17.7739,20.7412 c 0,4.9768 -3.821,9.0055 -8.56309,9.0055 -4.74212,0 -8.563105,-4.0287 -8.563105,-9.0055 0,-4.9767 3.820985,-12.4247998 8.563105,-12.4247998 4.74209,0 8.56309,7.4480998 8.56309,12.4247998 z"
     fill="#2bb5b6"
     id="path14" />
  <path
     d="M 9.21131,30.3913 C 4.12803,30.3913 0,26.0578 0,20.7426 0,15.5966 3.95745,7.6406002 9.21131,7.6406002 c 5.25389,0 9.21129,7.9559998 9.21129,13.1019998 0,5.3152 -4.128,9.6487 -9.21129,9.6487 z m 0,-21.4302998 c -4.29861,0 -7.9149,7.2449998 -7.9149,11.7815998 0,4.6043 3.54806,8.3622 7.9149,8.3622 4.36689,0 7.91489,-3.7579 7.91489,-8.3622 C 17.0921,16.206 13.4758,8.9610002 9.21131,8.9610002 Z"
     fill="#000000"
     id="path15" />
  <path
     d="m 4.23057,20.5739 c 0,-4.0965 2.11519,-9.9195 5.04917,-11.8830998 -0.2047,-0.0339 -0.40939,-0.0678 -0.61409,-0.0678 -4.29861,0 -7.778443,7.3465998 -7.778443,12.2216998 0,4.8752 3.479833,8.8362 7.778443,8.8362 0.47762,0 0.95525,-0.0677 1.39875,-0.1354 C 6.75515,28.7669 4.23057,25.0428 4.23057,20.5739 Z"
     fill="#238784"
     id="path16" />
  <path
     d="M 9.21131,30.3913 C 4.12803,30.3913 0,26.0578 0,20.7426 0,15.5966 3.95745,7.6406002 9.21131,7.6406002 c 5.25389,0 9.21129,7.9559998 9.21129,13.1019998 0,5.3152 -4.128,9.6487 -9.21129,9.6487 z m 0,-21.4302998 c -4.29861,0 -7.9149,7.2449998 -7.9149,11.7815998 0,4.6043 3.54806,8.3622 7.9149,8.3622 4.36689,0 7.91489,-3.7579 7.91489,-8.3622 C 17.0921,16.206 13.4758,8.9610002 9.21131,8.9610002 Z"
     fill="#000000"
     id="path17" />
  <path
     d="m 21.015,26.0923 c 0.273,1.5573 -0.7846,3.047 -2.354,3.284 -1.5693,0.2369 -3.0704,-0.7787 -3.3092,-2.3361 -0.2729,-1.5573 1.3305,-7.5835 1.9105,-6.1277 0.8188,2.3021 3.4798,3.6225 3.7527,5.1798 z"
     fill="#f75b58"
     id="path18" />
  <path
     d="m 18.1496,30.0862 c -0.7165,0 -1.4329,-0.2369 -2.047,-0.6432 -0.7847,-0.5417 -1.2964,-1.3542 -1.4329,-2.2683 -0.1706,-1.0834 0.7506,-6.7033 2.1152,-7.0757 0.3412,-0.1016 0.8188,0.0338 1.0235,0.6432 0.3753,1.0495 1.2282,1.8621 2.0469,2.6746 0.8529,0.8464 1.6376,1.6589 1.8082,2.6068 0.1706,0.9141 -0.0682,1.8621 -0.6141,2.6069 -0.5458,0.7786 -1.3646,1.2865 -2.2858,1.4219 -0.2047,0 -0.4094,0.0338 -0.614,0.0338 z m -1.1941,-8.1929 c -0.5117,1.3204 -1.1258,4.1303 -0.9894,5.0106 0.1024,0.5755 0.4094,1.0833 0.887,1.4219 0.4777,0.3385 1.0576,0.474 1.6717,0.3724 0.58,-0.1016 1.0917,-0.4063 1.4329,-0.8802 0.3412,-0.474 0.4776,-1.0496 0.3753,-1.6589 -0.1024,-0.5417 -0.7506,-1.2188 -1.4329,-1.8959 -0.6482,-0.6771 -1.3988,-1.422 -1.9446,-2.3699 z"
     fill="#000000"
     id="path19" />
  <path
     d="m 15.4883,21.3504 c 0.6141,0.4401 1.8082,0.5078 3.3434,0.237 1.0917,-0.2031 2.3199,-0.5756 3.6163,-1.1172 -1.0576,-2.1668 -3.0363,-3.4533 -6.0044,-3.9272 -1.3646,1.388 -1.2282,3.5209 -0.9553,4.8074 z m 1.0576,-3.6564 c 0,0 1.0917,1.8621 0.0683,2.0991 -0.887,0.2369 -0.6141,-1.422 -0.0683,-2.0991 z"
     fill="#f9a100"
     id="path20" />
  <path
     d="m 17.2295,22.4344 c -0.7846,0 -1.5693,-0.1354 -2.1152,-0.5078 L 14.9097,21.7912 14.8755,21.5203 C 14.6026,20.2 14.3979,17.7286 16.0014,16.1374 l 0.2388,-0.237 0.3411,0.0677 c 3.2069,0.5078 5.3562,1.9297 6.5162,4.2996 l 0.307,0.6094 -0.6482,0.2708 c -1.3305,0.5417 -2.6269,0.948 -3.7527,1.1511 -0.58,0.0677 -1.1941,0.1354 -1.7741,0.1354 z m -1.1599,-1.4896 c 0.4435,0.1693 1.3305,0.2708 2.6269,0.0339 0.8529,-0.1693 1.8082,-0.4402 2.7975,-0.8126 -0.887,-1.4219 -2.354,-2.336 -4.4009,-2.8099 0.2047,0.3385 0.8529,1.5573 0.4776,2.4037 -0.1365,0.3385 -0.4435,0.5755 -0.8188,0.6771 -0.2729,0.0677 -0.5458,0.0338 -0.7847,-0.0677 0.0342,0.2031 0.0683,0.4062 0.1024,0.5755 z"
     fill="#000000"
     id="path21" />
  <path
     d="m 12.6572,23.1448 c 2.5436,0 4.6056,-2.0463 4.6056,-4.5705 0,-2.5241 -2.062,-4.5704 -4.6056,-4.5704 -2.5437,0 -4.60569,2.0463 -4.60569,4.5704 0,2.5242 2.06199,4.5705 4.60569,4.5705 z"
     fill="#ffffff"
     id="path22" />
  <path
     d="m 12.6574,23.8228 c -1.16,0 -2.2858,-0.3724 -3.20693,-1.0834 C 7.13058,20.9789 6.68708,17.695 8.46111,15.3928 10.2351,13.0907 13.5444,12.6506 15.8643,14.411 c 1.1258,0.8464 1.8422,2.0991 2.0128,3.4871 0.1706,1.3881 -0.1706,2.7761 -1.0576,3.8595 -0.8529,1.1172 -2.1152,1.8282 -3.5139,1.9975 -0.1706,0.0338 -0.4094,0.0677 -0.6482,0.0677 z m 0,-9.1748 c -0.1706,0 -0.3412,0 -0.5118,0.0339 -1.0576,0.1354 -1.9787,0.6771 -2.6269,1.4896 -1.33052,1.7266 -0.98936,4.198 0.7164,5.5184 0.8529,0.6432 1.8764,0.9141 2.934,0.7787 1.0576,-0.1355 1.9787,-0.6771 2.6269,-1.4897 0.6482,-0.8463 0.9212,-1.862 0.7847,-2.9115 -0.1365,-1.0495 -0.6823,-1.9636 -1.5011,-2.6068 -0.7164,-0.5417 -1.5352,-0.8126 -2.4222,-0.8126 z"
     fill="#000000"
     id="path23" />
  <path
     d="m 11.4969,19.8282 c 0.6218,0 1.1258,-0.5002 1.1258,-1.1172 0,-0.6171 -0.504,-1.1172 -1.1258,-1.1172 -0.6218,0 -1.1258,0.5001 -1.1258,1.1172 0,0.617 0.504,1.1172 1.1258,1.1172 z"
     fill="#000000"
     id="path24" />
  <path
     d="m 10.7803,15.8325 c 0.7506,-0.7787 1.7058,-1.1849 2.6952,-1.2526 -1.467,-0.4402 -3.1045,-0.0677 -4.23037,1.0833 -1.60345,1.6589 -1.53522,4.2658 0.13646,5.857 0.88701,0.8463 2.04691,1.2188 3.20691,1.151 -0.6141,-0.1692 -1.1941,-0.5078 -1.6717,-0.9818 -1.67167,-1.5911 -1.73991,-4.198 -0.1365,-5.8569 z"
     fill="#d1d3d4"
     id="path25" />
  <path
     d="m 12.6574,23.8228 c -1.16,0 -2.2858,-0.3724 -3.20693,-1.0834 C 7.13058,20.9789 6.68708,17.695 8.46111,15.3928 10.2351,13.0907 13.5444,12.6506 15.8643,14.411 c 1.1258,0.8464 1.8422,2.0991 2.0128,3.4871 0.1706,1.3881 -0.1706,2.7761 -1.0576,3.8595 -0.8529,1.1172 -2.1152,1.8282 -3.5139,1.9975 -0.1706,0.0338 -0.4094,0.0677 -0.6482,0.0677 z m 0,-9.1748 c -0.1706,0 -0.3412,0 -0.5118,0.0339 -1.0576,0.1354 -1.9787,0.6771 -2.6269,1.4896 -1.33052,1.7266 -0.98936,4.198 0.7164,5.5184 0.8529,0.6432 1.8764,0.9141 2.934,0.7787 1.0576,-0.1355 1.9787,-0.6771 2.6269,-1.4897 0.6482,-0.8463 0.9212,-1.862 0.7847,-2.9115 -0.1365,-1.0495 -0.6823,-1.9636 -1.5011,-2.6068 -0.7164,-0.5417 -1.5352,-0.8126 -2.4222,-0.8126 z"
     fill="#000000"
     id="path26" />
</svg>
