<?xml version="1.0" encoding="UTF-8" standalone="no"?>
<svg
   version="1.1"
   id="Layer_1"
   x="0px"
   y="0px"
   viewBox="0 0 119.81999 59.41"
   xml:space="preserve"
   aria-hidden="true"
   sodipodi:docname="connectwise_logo_e.svg"
   inkscape:version="1.3.2 (091e20e, 2023-11-25, custom)"
   width="119.82"
   height="59.41"
   xmlns:inkscape="http://www.inkscape.org/namespaces/inkscape"
   xmlns:sodipodi="http://sodipodi.sourceforge.net/DTD/sodipodi-0.dtd"
   xmlns="http://www.w3.org/2000/svg"
   xmlns:svg="http://www.w3.org/2000/svg"><defs
   id="defs2" /><sodipodi:namedview
   id="namedview2"
   pagecolor="#ffffff"
   bordercolor="#000000"
   borderopacity="0.25"
   inkscape:showpageshadow="2"
   inkscape:pageopacity="0.0"
   inkscape:pagecheckerboard="0"
   inkscape:deskcolor="#d1d1d1"
   inkscape:zoom="2.6614037"
   inkscape:cx="138.46077"
   inkscape:cy="16.7205"
   inkscape:window-width="2560"
   inkscape:window-height="1369"
   inkscape:window-x="-8"
   inkscape:window-y="-8"
   inkscape:window-maximized="1"
   inkscape:current-layer="g2" />
<style
   type="text/css"
   id="style1">
	.st0{fill:#24336A;}
</style>
<g
   id="g2">
	<path
   id="path1"
   class="st0"
   d="M 3.5292969,0.05078125 C 1.9293001,-0.25921813 0.37054626,0.7906282 0.06054687,2.390625 -0.25945249,4.0006218 0.7906282,5.55086 2.390625,5.8808594 c 8.749982,1.7099966 16.690014,5.3882916 23.75,10.9882816 1.169998,0.939998 2.328988,1.920939 3.458984,2.960937 l 0.03125,0.0293 c 0.35,0.32 0.699063,0.650469 1.039063,0.980469 2.999994,2.899994 5.830709,6.189381 8.470703,9.859375 7.399986,10.299978 10.448516,19.91 10.478516,20 0.339998,1.089998 1.270392,1.880781 2.40039,2.050781 0.14,0.02 0.289688,0.0293 0.429688,0.0293 0.979998,0 1.910939,-0.478596 2.460937,-1.308594 l 4.910156,-7.310547 4.910157,7.310547 c 0.559998,0.829998 1.478986,1.308594 2.458984,1.308594 0.14,0 0.289688,-0.0093 0.429688,-0.0293 1.129996,-0.17 2.060392,-0.960783 2.40039,-2.050781 0.03,-0.1 3.080483,-9.699786 10.480469,-20.009766 2.619994,-3.649992 5.430162,-6.908834 8.410156,-9.798828 1.489998,-1.439998 3.019612,-2.781252 4.59961,-4.03125 7.059984,-5.589988 15.000004,-9.2802378 23.750004,-10.9902344 1.59998,-0.3199994 2.64984,-1.8685188 2.33984,-3.4785156 -0.31,-1.60999678 -1.85875,-2.64984313 -3.46875,-2.33984375 C 105.98088,2.0407743 96.629203,6.5801702 88.449219,13.410156 79.809235,8.180167 69.950058,5.3808594 59.830078,5.3808594 c -10.11998,0 -19.979158,2.8093076 -28.61914,8.0292966 C 23.030954,6.5801702 13.669277,2.0407773 3.5292969,0.05078125 Z M 59.820312,11.369141 c 8.429984,0 16.670016,2.181492 24,6.271484 -2.929994,2.939994 -5.690238,6.189772 -8.240234,9.759766 -4.40999,6.159986 -7.339613,11.998836 -9.099609,16.048828 L 59.820312,32.580078 53.160156,43.449219 c -1.759996,-4.049992 -4.699619,-9.888842 -9.099609,-16.048828 -2.549996,-3.569994 -5.300239,-6.829772 -8.240235,-9.759766 7.339986,-4.089992 15.570018,-6.271484 24,-6.271484 z M 23.490234,19 c -0.369998,0.33 -0.739375,0.650236 -1.109375,0.990234 -10.229978,9.289982 -16.9709411,22.080028 -18.9609371,36 -0.2299996,1.629998 0.9010188,3.148907 2.5410156,3.378907 1.6399968,0.229998 3.1489067,-0.899067 3.3789063,-2.539063 C 11.12984,44.280104 17.190409,32.77014 26.400391,24.410156 26.950389,23.910158 27.519844,23.419453 28.089844,22.939453 26.599846,21.529457 25.070232,20.209998 23.490234,19 Z m 72.660157,0 c -1.579998,1.209998 -3.109612,2.529457 -4.59961,3.939453 0.57,0.48 1.129455,0.970705 1.689453,1.470703 9.209986,8.359984 15.270546,19.869948 17.060546,32.419922 0.22,1.489998 1.49899,2.570313 2.95899,2.570313 0.14,0 0.28968,-0.01125 0.42968,-0.03125 1.64,-0.23 2.77102,-1.748909 2.54102,-3.378907 -1.99,-13.919972 -8.72096,-26.710018 -18.960939,-36 C 96.899533,19.650236 96.530389,19.32 96.150391,19 Z M 369.0293,24.318359 c -0.008,-0.0065 -199.95631,-4.487159 -0.0781,0.02148 z"
   inkscape:label="path1"
   style="display:inline"
   sodipodi:nodetypes="ccccccccccscccsccccccsccsccscccccscscccsccccccccsccccccc" />
	
	
</g>
</svg>
