<?xml version="1.0" encoding="UTF-8" standalone="no"?>
<!-- Created with Inkscape (http://www.inkscape.org/) -->

<svg
   width="64mm"
   height="61mm"
   viewBox="0 0 64 61"
   version="1.1"
   id="svg1"
   xml:space="preserve"
   xmlns="http://www.w3.org/2000/svg"
   xmlns:svg="http://www.w3.org/2000/svg"><defs
     id="defs1" /><g
     id="layer1"><path
       style="fill:#8BC24C"
       d="m 27.790317,55.971336 c -2.45e-4,-0.775259 -1.069783,-6.52716 -1.240845,-6.673179 -0.117866,-0.10061 -0.750082,-0.335663 -1.404926,-0.522341 -0.654844,-0.186677 -1.964531,-0.726766 -2.910417,-1.200198 -1.719791,-0.860784 -1.719791,-0.860784 -4.365625,1.074815 -3.248905,2.376786 -2.741417,2.409776 -5.49562,-0.357248 -2.7535578,-2.766375 -2.720307,-2.240032 -0.346498,-5.48487 1.935599,-2.645833 1.935599,-2.645833 1.074815,-4.365625 -0.473431,-0.945885 -1.01352,-2.255573 -1.200197,-2.910417 -0.186678,-0.654843 -0.421731,-1.28706 -0.522341,-1.404926 -0.146019,-0.171062 -5.8979202,-1.2406 -6.6731791,-1.240844 -0.1091406,-3.5e-5 -0.1984375,-1.607407 -0.1984375,-3.571938 0,-1.964531 0.089297,-3.571903 0.1984375,-3.571938 0.7752589,-2.44e-4 6.5271601,-1.069782 6.6731791,-1.240845 0.10061,-0.117865 0.335663,-0.750082 0.522341,-1.404926 0.186677,-0.654843 0.726766,-1.964531 1.200197,-2.910416 0.860784,-1.719792 0.860784,-1.719792 -1.074815,-4.365625 -2.373809,-3.244838 -2.4070598,-2.718495 0.346498,-5.484871 2.754203,-2.767023 2.246715,-2.7340333 5.49562,-0.3572477 2.645834,1.9355997 2.645834,1.9355997 4.365625,1.0748147 0.945886,-0.473431 2.255573,-1.01352 2.910417,-1.2001977 0.654844,-0.186677 1.28706,-0.42173 1.404926,-0.52234 0.171062,-0.146019 1.2406,-5.8979211 1.240845,-6.67318 3.4e-5,-0.1091406 1.607406,-0.1984375 3.571937,-0.1984375 1.964531,0 3.571903,0.089297 3.571938,0.1984375 2.44e-4,0.7752589 1.069782,6.527161 1.240844,6.67318 0.117866,0.10061 0.750083,0.335663 1.404926,0.52234 0.654844,0.1866777 1.964532,0.7267667 2.910417,1.2001977 1.719792,0.860785 1.719792,0.860785 4.365625,-1.0748147 3.248905,-2.3767856 2.741417,-2.4097753 5.49562,0.3572477 2.753558,2.766376 2.720307,2.240033 0.346498,5.484871 -1.935599,2.645833 -1.935599,2.645833 -1.074815,4.365625 0.473431,0.945885 1.01352,2.255573 1.200198,2.910416 0.186677,0.654844 0.42173,1.287061 0.52234,1.404926 0.146019,0.171063 5.897921,1.240601 6.67318,1.240845 0.10914,3.5e-5 0.198437,1.607407 0.198437,3.571938 0,1.964531 -0.0893,3.571903 -0.198437,3.571938 -0.775259,2.44e-4 -6.527161,1.069782 -6.67318,1.240844 -0.10061,0.117866 -0.335663,0.750083 -0.52234,1.404926 -0.186678,0.654844 -0.726767,1.964532 -1.200198,2.910417 -0.860784,1.719792 -0.860784,1.719792 1.074815,4.365625 2.376785,3.248906 2.409775,2.741418 -0.357248,5.495621 -2.766375,2.753558 -2.240032,2.720307 -5.48487,0.346497 -2.645833,-1.935599 -2.645833,-1.935599 -4.365625,-1.074815 -0.945885,0.473432 -2.255573,1.013521 -2.910417,1.200198 -0.654843,0.186678 -1.28706,0.421731 -1.404926,0.522341 -0.171062,0.146019 -1.2406,5.89792 -1.240844,6.673179 -3.5e-5,0.109141 -1.607407,0.198438 -3.571938,0.198438 -1.964531,0 -3.571903,-0.0893 -3.571937,-0.198438 z M 35.912658,43.875907 C 46.974675,40.380742 50.279787,26.287212 41.912167,18.293035 32.213188,9.0269163 16.148713,15.899252 16.148713,29.314565 c 0,10.325112 9.955948,17.660286 19.763945,14.561342 z M 25.446133,35.173103 c -1.131506,-1.152921 -1.131506,-1.152921 -0.349153,-2.386563 0.713713,-1.125409 0.758331,-1.32828 0.50855,-2.312339 -0.186251,-0.73377 -0.188234,-1.452631 -0.0062,-2.248113 0.246024,-1.075127 0.204805,-1.268434 -0.511218,-2.397485 -1.215419,-1.916517 0.871666,-4.003601 2.788182,-2.788183 1.129051,0.716024 1.322359,0.757243 2.397486,0.511219 0.795481,-0.182032 1.514342,-0.180049 2.248112,0.0062 0.984499,0.249892 1.186793,0.20525 2.316547,-0.511219 1.931563,-1.224961 4.016721,0.860197 2.79176,2.79176 -0.716469,1.129753 -0.761111,1.332048 -0.511219,2.316546 0.186251,0.733771 0.188234,1.452632 0.0062,2.248113 -0.246024,1.075127 -0.204805,1.268435 0.511219,2.397486 1.219406,1.922805 -0.872691,4.002952 -2.797962,2.781981 -1.129754,-0.716469 -1.332048,-0.761111 -2.316547,-0.511219 -0.73377,0.186251 -1.452631,0.188234 -2.248112,0.0062 -1.071019,-0.245084 -1.269996,-0.203815 -2.364763,0.490466 -1.449938,0.919524 -1.121191,0.972229 -2.462882,-0.394854 z"
       id="path2" /><path
       style="fill:#000000"
       id="path1"
       d="" /></g></svg>
