<?xml version="1.0" encoding="UTF-8" standalone="no"?>
<!-- Created with Inkscape (http://www.inkscape.org/) -->

<svg
   width="210mm"
   height="210mm"
   viewBox="0 0 210 210"
   version="1.1"
   id="svg5"
   inkscape:version="1.2 (dc2aedaf03, 2022-05-15)"
   sodipodi:docname="ProVal Logo Square.svg"
   xmlns:inkscape="http://www.inkscape.org/namespaces/inkscape"
   xmlns:sodipodi="http://sodipodi.sourceforge.net/DTD/sodipodi-0.dtd"
   xmlns="http://www.w3.org/2000/svg"
   xmlns:svg="http://www.w3.org/2000/svg">
  <sodipodi:namedview
     id="namedview7"
     pagecolor="#ffffff"
     bordercolor="#666666"
     borderopacity="1.0"
     inkscape:pageshadow="2"
     inkscape:pageopacity="0.0"
     inkscape:pagecheckerboard="0"
     inkscape:document-units="mm"
     showgrid="false"
     inkscape:zoom="0.7500982"
     inkscape:cx="290.62861"
     inkscape:cy="475.93768"
     inkscape:window-width="1920"
     inkscape:window-height="1027"
     inkscape:window-x="-8"
     inkscape:window-y="-8"
     inkscape:window-maximized="1"
     inkscape:current-layer="layer1"
     inkscape:showpageshadow="2"
     inkscape:deskcolor="#d1d1d1" />
  <defs
     id="defs2" />
  <g
     inkscape:label="Layer 1"
     inkscape:groupmode="layer"
     id="layer1">
    <path
       style="fill:#0096db;fill-opacity:1;stroke-width:0.457089"
       d="m 4.3620899,181.14759 c -2.6904403,-6.32428 -2.3369501,-13.72994 0.1732141,-20.0428 2.812139,-7.69147 7.815594,-14.84847 11.603857,-21.94024 2.672923,-4.57607 5.308892,-9.04985 8.03631,-13.63122 3.942801,-7.43573 8.656162,-14.71744 12.52428,-21.98351 2.867277,-4.642771 5.558306,-9.519774 8.459145,-14.445157 2.589064,-4.662723 5.232351,-9.238676 7.909094,-13.65597 2.45029,-4.309441 4.560684,-8.335553 7.166537,-12.404008 3.906462,-7.124482 8.299279,-14.285403 12.126505,-21.239833 2.492072,-4.165421 4.948996,-8.468883 7.204588,-12.592864 2.791644,-4.065794 5.744877,-8.611722 10.069727,-11.632831 3.849279,-4.011822 10.057488,-6.477823 11.431973,1.27842 3.15277,5.040076 5.39662,10.610646 8.34597,15.946793 3.03231,6.059681 5.81491,12.181745 8.88514,17.970589 3.07635,4.696368 3.41926,8.926016 -2.97108,9.598868 -4.66689,1.896126 -9.13949,4.115926 -13.20789,7.210979 -4.98742,2.39496 -8.830527,5.970394 -13.370883,9.097747 -13.402099,11.356834 -25.840091,23.925207 -36.956522,37.489117 -4.052002,4.80503 -7.719683,9.91781 -11.689565,14.76528 -3.411938,4.24701 -6.203091,8.72756 -9.702161,12.92605 -2.420203,4.24506 -5.645417,7.74096 -7.823368,11.89434 -2.527418,2.99742 -4.338284,6.50212 -6.666344,9.67544 -2.312839,3.47189 -4.490687,6.86288 -6.7693749,10.52198 -1.2806279,0.59139 -3.4005554,8.40776 -4.7791522,5.19283 z"
       id="path4268" />
    <path
       style="fill:#ea5133;fill-opacity:1;stroke-width:0.457089"
       d="m 28.709088,195.45349 c -6.238893,-0.89308 -12.474097,-2.39421 -17.444775,-6.33045 -4.486954,-4.04999 4.392653,-10.14907 5.883297,-14.44531 4.289002,-7.12405 9.117946,-14.20067 13.846923,-21.05141 2.204504,-3.54296 4.814367,-6.55111 7.039133,-10.22346 3.462681,3.02388 7.17992,6.10393 11.038783,8.22829 5.611036,4.02339 12.314962,7.0543 18.806029,9.62599 4.565249,2.0649 9.609471,3.62455 14.265203,5.30706 5.718949,2.00102 11.599248,2.95225 17.305798,4.9536 6.843991,1.40204 13.652501,2.7327 20.475221,4.23316 6.39788,0.81572 12.75373,1.72377 19.11038,2.88799 6.4581,0.15557 12.65235,2.06647 19.1936,1.66807 7.88558,1.67201 16.12211,0.9419 24.0973,2.20059 6.72441,0.6235 13.68918,0.12913 20.28704,0.87022 -3.3977,6.01224 -10.29638,9.53209 -16.79423,11.2 -9.84727,1.87342 -20.01094,0.77225 -30.00975,1.16596 -42.36448,0.0523 -84.742818,0.33687 -127.099952,-0.2903 z"
       id="path11836" />
    <path
       style="fill:#13467b;fill-opacity:1;stroke-width:0.457089"
       d="m 196.91763,177.63035 c -10.1193,-1.02858 -20.36504,-0.54421 -30.44945,-2.00931 -4.58311,-1.2537 -17.52655,1.92667 -13.1879,-6.14919 1.04175,-7.44789 1.86198,-15.12526 0.27,-22.56799 -0.1405,-7.56259 -1.89393,-14.88307 -3.18099,-22.25757 -1.13259,-5.69715 -3.03265,-11.10007 -4.2693,-16.73945 -1.99554,-5.87957 -3.77877,-11.824306 -5.88393,-17.650703 -2.1386,-5.870817 -4.62935,-11.549494 -6.4992,-17.591392 -2.72123,-4.313394 -3.87496,-9.554123 -6.51197,-13.978424 -1.76185,-4.973102 -4.11488,-9.469958 -6.52393,-14.084672 -1.91642,-4.581469 -4.37372,-8.848311 -6.49633,-13.309839 -2.14908,-4.326774 -4.31139,-8.628163 -6.52315,-12.91989 -1.73745,-2.575461 -5.65196,-9.0728814 0.4303,-5.780418 5.66952,0.558367 9.77305,4.580149 13.8415,8.267503 3.52973,3.901955 5.90736,8.044129 8.55315,12.613078 2.59587,4.253061 5.35166,9.043744 7.93319,13.553884 2.4369,4.161738 5.03604,8.344802 7.34043,12.605322 2.51692,4.370542 5.34707,9.20793 7.93479,13.536643 2.72233,4.813734 5.6578,9.817207 8.59834,14.726597 2.44803,3.961879 4.43872,8.332985 7.21016,12.360011 2.65397,5.25427 5.84486,9.77471 8.49436,14.94784 2.84026,4.33575 5.182,8.97623 7.86495,13.22385 2.72564,4.54959 5.00148,8.99123 7.85536,13.48084 2.42887,4.24475 4.60299,8.32377 7.20821,12.28711 2.44038,5.55074 5.01692,11.33866 4.59797,17.6681 -0.18495,2.88372 0.71985,7.52848 -3.56841,6.15477 -1.68123,-0.0339 -3.40874,0.11519 -5.03815,-0.3867 z"
       id="path14369" />
  </g>
</svg>
